<?xml version="1.0" encoding="utf-8"?>
<!-- Generator: Adobe Illustrator 26.0.3, SVG Export Plug-In . SVG Version: 6.00 Build 0)  -->
<svg version="1.1" id="Слой_1" xmlns="http://www.w3.org/2000/svg" xmlns:xlink="http://www.w3.org/1999/xlink" x="0px" y="0px"
	 viewBox="0 0 441 67" style="enable-background:new 0 0 441 67;" xml:space="preserve">
<style type="text/css">
	.st0{fill:#292929;}
	.st1{fill:url(#SVGID_1_);}
	.st2{fill:url(#SVGID_00000065075603215709993560000001443696379812972943_);}
	.st3{fill:url(#SVGID_00000138558340296622543720000010286335121798398891_);}
</style>
<path class="st0" d="M53.6,49.5l0.5,9.3c0.1,3,0.7,5.3,1.8,7.1h-16c-1-1.9-1.5-4.3-1.6-7.2L38,51.3c-0.1-3.6-0.9-6.2-2.4-7.5
	c-1.5-1.4-3.9-2.1-7.2-2.1H15.6v24.2H0V0h31.1c7.7,0,13.6,1.7,17.7,5.1c4.1,3.4,6.1,8.1,6.1,13.9c0,7.6-3.5,12.8-10.6,15.6
	c3.4,1.1,5.7,2.8,7.1,5.1C52.6,42.1,53.4,45.3,53.6,49.5z M15.6,12.5v17.4h13.7c3,0,5.3-0.8,7-2.3c1.7-1.5,2.5-3.7,2.5-6.5
	c0-5.7-3.3-8.6-9.8-8.6L15.6,12.5z M108.9,43.4v2.9H73.7c0.5,3.3,1.7,5.8,3.6,7.5c1.9,1.7,4.3,2.6,7.3,2.6c4.7,0,7.9-1.8,9.6-5.4
	h13.7c-1.2,4.8-4.1,9-8.2,11.7c-4.2,2.9-9.2,4.3-15,4.3c-7.4,0-13.3-2.3-17.9-6.8c-4.5-4.6-6.8-10.6-6.8-18.1
	c0-7.6,2.2-13.6,6.7-18.1C71,19.3,76.9,17,84.4,17c7.4,0,13.3,2.4,17.9,7.1C106.7,29,108.9,35.4,108.9,43.4L108.9,43.4z M84.2,27.7
	c-5.9,0-9.4,3.1-10.4,9.4h21c-0.5-3-1.7-5.3-3.5-6.9C89.4,28.5,87.1,27.7,84.2,27.7L84.2,27.7z M143.1,25.4l2.5-7.2h14.8l-17,47.8
	h-17.1l-17-47.8h15.5l2.5,7.2c1.3,4.6,2.6,9,3.8,13.4c1.2,4.3,2.2,7.7,2.9,10.2c0.7,2.4,1.1,4,1.3,4.7c0.2-0.7,0.6-2.2,1.3-4.7
	c0.7-2.4,1.6-5.8,2.9-10.2C140.6,34.4,141.8,29.9,143.1,25.4L143.1,25.4z M209.6,43.4v2.9h-35.2c0.5,3.3,1.7,5.8,3.6,7.5
	c1.9,1.7,4.3,2.6,7.3,2.6c4.7,0,7.9-1.8,9.6-5.4h13.6c-1.2,4.8-4.1,9-8.2,11.7c-4.2,2.9-9.2,4.3-15,4.3c-7.4,0-13.3-2.3-17.9-6.8
	c-4.5-4.6-6.8-10.6-6.8-18.1c0-7.6,2.2-13.6,6.7-18.1c4.4-4.6,10.4-6.9,17.8-6.9c7.4,0,13.3,2.4,17.9,7.1
	C207.4,29,209.6,35.4,209.6,43.4L209.6,43.4z M184.9,27.7c-5.9,0-9.4,3.1-10.4,9.4h21c-0.5-3-1.7-5.3-3.5-6.9
	C190.2,28.5,187.9,27.7,184.9,27.7z M245.3,17c5,0,9,1.5,12,4.6c3,3.1,4.5,7.4,4.5,13v31.3h-14.4V37.5c0-5.4-2.6-8.1-7.7-8.1
	c-1.2,0-2.4,0.2-3.5,0.6c-1.1,0.4-2.1,1.1-3,2c-1.7,1.7-2.6,4.2-2.6,7.3v26.6h-14.4V18.1h14v6.8C234.1,19.6,239.1,17,245.3,17z
	 M300,44.8V18.1h14.4v47.8h-14v-6.8c-3.7,5.2-8.7,7.9-14.9,7.9c-5,0-9-1.5-12-4.6c-3-3.1-4.5-7.4-4.5-13V18.2h14.4v28.4
	c0,5.4,2.5,8.1,7.6,8.1c1.2,0,2.4-0.2,3.5-0.6c1.1-0.4,2.1-1.1,3-2C299.1,50.4,300,47.9,300,44.8L300,44.8z M369.8,43.4v2.9h-35.2
	c0.5,3.3,1.7,5.8,3.6,7.5c1.9,1.7,4.3,2.6,7.3,2.6c4.7,0,7.9-1.8,9.6-5.4h13.6c-1.2,4.8-4.1,9-8.2,11.7c-4.2,2.9-9.2,4.3-15,4.3
	c-7.4,0-13.3-2.3-17.9-6.8c-4.5-4.6-6.8-10.6-6.8-18.1c0-7.6,2.2-13.6,6.7-18.1c4.4-4.6,10.4-6.9,17.8-6.9c7.4,0,13.3,2.4,17.9,7.1
	C367.6,29,369.8,35.4,369.8,43.4L369.8,43.4z M345.1,27.7c-5.9,0-9.4,3.1-10.4,9.4h21c-0.5-3-1.7-5.3-3.5-6.9
	C350.4,28.5,348,27.7,345.1,27.7L345.1,27.7z M423.5,43.5L415.3,33l-9.2-11.8L389.6,0h-18.4L396.9,33l-25.7,32.9h18.4l16.5-21.1
	l16.5,21.1H441L423.5,43.5z M441,0h-18.4l-16.5,21.1h18.4L441,0z"/>
<radialGradient id="SVGID_1_" cx="-73.9021" cy="455.0001" r="1" gradientTransform="matrix(7.649389e-15 124.924 699.401 -4.282596e-14 -317939.25 9242.166)" gradientUnits="userSpaceOnUse">
	<stop  offset="0" style="stop-color:#6FDBEB;stop-opacity:0.25"/>
	<stop  offset="1" style="stop-color:#181818;stop-opacity:0"/>
</radialGradient>
<path class="st1" d="M53.6,49.5l0.5,9.3c0.1,3,0.7,5.3,1.8,7.1h-16c-1-1.9-1.5-4.3-1.6-7.2L38,51.3c-0.1-3.6-0.9-6.2-2.4-7.5
	c-1.5-1.4-3.9-2.1-7.2-2.1H15.6v24.2H0V0h31.1c7.7,0,13.6,1.7,17.7,5.1c4.1,3.4,6.1,8.1,6.1,13.9c0,7.6-3.5,12.8-10.6,15.6
	c3.4,1.1,5.7,2.8,7.1,5.1C52.6,42.1,53.4,45.3,53.6,49.5z M15.6,12.5v17.4h13.7c3,0,5.3-0.8,7-2.3c1.7-1.5,2.5-3.7,2.5-6.5
	c0-5.7-3.3-8.6-9.8-8.6L15.6,12.5z M108.9,43.4v2.9H73.7c0.5,3.3,1.7,5.8,3.6,7.5c1.9,1.7,4.3,2.6,7.3,2.6c4.7,0,7.9-1.8,9.6-5.4
	h13.7c-1.2,4.8-4.1,9-8.2,11.7c-4.2,2.9-9.2,4.3-15,4.3c-7.4,0-13.3-2.3-17.9-6.8c-4.5-4.6-6.8-10.6-6.8-18.1
	c0-7.6,2.2-13.6,6.7-18.1C71,19.3,76.9,17,84.4,17c7.4,0,13.3,2.4,17.9,7.1C106.7,29,108.9,35.4,108.9,43.4L108.9,43.4z M84.2,27.7
	c-5.9,0-9.4,3.1-10.4,9.4h21c-0.5-3-1.7-5.3-3.5-6.9C89.4,28.5,87.1,27.7,84.2,27.7L84.2,27.7z M143.1,25.4l2.5-7.2h14.8l-17,47.8
	h-17.1l-17-47.8h15.5l2.5,7.2c1.3,4.6,2.6,9,3.8,13.4c1.2,4.3,2.2,7.7,2.9,10.2c0.7,2.4,1.1,4,1.3,4.7c0.2-0.7,0.6-2.2,1.3-4.7
	c0.7-2.4,1.6-5.8,2.9-10.2C140.6,34.4,141.8,29.9,143.1,25.4L143.1,25.4z M209.6,43.4v2.9h-35.2c0.5,3.3,1.7,5.8,3.6,7.5
	c1.9,1.7,4.3,2.6,7.3,2.6c4.7,0,7.9-1.8,9.6-5.4h13.6c-1.2,4.8-4.1,9-8.2,11.7c-4.2,2.9-9.2,4.3-15,4.3c-7.4,0-13.3-2.3-17.9-6.8
	c-4.5-4.6-6.8-10.6-6.8-18.1c0-7.6,2.2-13.6,6.7-18.1c4.4-4.6,10.4-6.9,17.8-6.9c7.4,0,13.3,2.4,17.9,7.1
	C207.4,29,209.6,35.4,209.6,43.4L209.6,43.4z M184.9,27.7c-5.9,0-9.4,3.1-10.4,9.4h21c-0.5-3-1.7-5.3-3.5-6.9
	C190.2,28.5,187.9,27.7,184.9,27.7z M245.3,17c5,0,9,1.5,12,4.6c3,3.1,4.5,7.4,4.5,13v31.3h-14.4V37.5c0-5.4-2.6-8.1-7.7-8.1
	c-1.2,0-2.4,0.2-3.5,0.6c-1.1,0.4-2.1,1.1-3,2c-1.7,1.7-2.6,4.2-2.6,7.3v26.6h-14.4V18.1h14v6.8C234.1,19.6,239.1,17,245.3,17z
	 M300,44.8V18.1h14.4v47.8h-14v-6.8c-3.7,5.2-8.7,7.9-14.9,7.9c-5,0-9-1.5-12-4.6c-3-3.1-4.5-7.4-4.5-13V18.2h14.4v28.4
	c0,5.4,2.5,8.1,7.6,8.1c1.2,0,2.4-0.2,3.5-0.6c1.1-0.4,2.1-1.1,3-2C299.1,50.4,300,47.9,300,44.8L300,44.8z M369.8,43.4v2.9h-35.2
	c0.5,3.3,1.7,5.8,3.6,7.5c1.9,1.7,4.3,2.6,7.3,2.6c4.7,0,7.9-1.8,9.6-5.4h13.6c-1.2,4.8-4.1,9-8.2,11.7c-4.2,2.9-9.2,4.3-15,4.3
	c-7.4,0-13.3-2.3-17.9-6.8c-4.5-4.6-6.8-10.6-6.8-18.1c0-7.6,2.2-13.6,6.7-18.1c4.4-4.6,10.4-6.9,17.8-6.9c7.4,0,13.3,2.4,17.9,7.1
	C367.6,29,369.8,35.4,369.8,43.4L369.8,43.4z M345.1,27.7c-5.9,0-9.4,3.1-10.4,9.4h21c-0.5-3-1.7-5.3-3.5-6.9
	C350.4,28.5,348,27.7,345.1,27.7L345.1,27.7z M423.5,43.5L415.3,33l-9.2-11.8L389.6,0h-18.4L396.9,33l-25.7,32.9h18.4l16.5-21.1
	l16.5,21.1H441L423.5,43.5z M441,0h-18.4l-16.5,21.1h18.4L441,0z"/>
<radialGradient id="SVGID_00000072968987289545255980000005902592476593048504_" cx="-73.9021" cy="455.0001" r="1" gradientTransform="matrix(7.649389e-15 124.924 699.401 -4.282596e-14 -317939.25 9242.166)" gradientUnits="userSpaceOnUse">
	<stop  offset="0" style="stop-color:#6FDBEB;stop-opacity:0.25"/>
	<stop  offset="1" style="stop-color:#FFFFFF;stop-opacity:0"/>
</radialGradient>
<path style="fill:url(#SVGID_00000072968987289545255980000005902592476593048504_);" d="M53.6,49.5l0.5,9.3c0.1,3,0.7,5.3,1.8,7.1
	h-16c-1-1.9-1.5-4.3-1.6-7.2L38,51.3c-0.1-3.6-0.9-6.2-2.4-7.5c-1.5-1.4-3.9-2.1-7.2-2.1H15.6v24.2H0V0h31.1
	c7.7,0,13.6,1.7,17.7,5.1c4.1,3.4,6.1,8.1,6.1,13.9c0,7.6-3.5,12.8-10.6,15.6c3.4,1.1,5.7,2.8,7.1,5.1
	C52.6,42.1,53.4,45.3,53.6,49.5z M15.6,12.5v17.4h13.7c3,0,5.3-0.8,7-2.3c1.7-1.5,2.5-3.7,2.5-6.5c0-5.7-3.3-8.6-9.8-8.6L15.6,12.5z
	 M108.9,43.4v2.9H73.7c0.5,3.3,1.7,5.8,3.6,7.5c1.9,1.7,4.3,2.6,7.3,2.6c4.7,0,7.9-1.8,9.6-5.4h13.7c-1.2,4.8-4.1,9-8.2,11.7
	c-4.2,2.9-9.2,4.3-15,4.3c-7.4,0-13.3-2.3-17.9-6.8c-4.5-4.6-6.8-10.6-6.8-18.1c0-7.6,2.2-13.6,6.7-18.1C71,19.3,76.9,17,84.4,17
	c7.4,0,13.3,2.4,17.9,7.1C106.7,29,108.9,35.4,108.9,43.4L108.9,43.4z M84.2,27.7c-5.9,0-9.4,3.1-10.4,9.4h21
	c-0.5-3-1.7-5.3-3.5-6.9C89.4,28.5,87.1,27.7,84.2,27.7L84.2,27.7z M143.1,25.4l2.5-7.2h14.8l-17,47.8h-17.1l-17-47.8h15.5l2.5,7.2
	c1.3,4.6,2.6,9,3.8,13.4c1.2,4.3,2.2,7.7,2.9,10.2c0.7,2.4,1.1,4,1.3,4.7c0.2-0.7,0.6-2.2,1.3-4.7c0.7-2.4,1.6-5.8,2.9-10.2
	C140.6,34.4,141.8,29.9,143.1,25.4L143.1,25.4z M209.6,43.4v2.9h-35.2c0.5,3.3,1.7,5.8,3.6,7.5c1.9,1.7,4.3,2.6,7.3,2.6
	c4.7,0,7.9-1.8,9.6-5.4h13.6c-1.2,4.8-4.1,9-8.2,11.7c-4.2,2.9-9.2,4.3-15,4.3c-7.4,0-13.3-2.3-17.9-6.8c-4.5-4.6-6.8-10.6-6.8-18.1
	c0-7.6,2.2-13.6,6.7-18.1c4.4-4.6,10.4-6.9,17.8-6.9c7.4,0,13.3,2.4,17.9,7.1C207.4,29,209.6,35.4,209.6,43.4L209.6,43.4z
	 M184.9,27.7c-5.9,0-9.4,3.1-10.4,9.4h21c-0.5-3-1.7-5.3-3.5-6.9C190.2,28.5,187.9,27.7,184.9,27.7z M245.3,17c5,0,9,1.5,12,4.6
	c3,3.1,4.5,7.4,4.5,13v31.3h-14.4V37.5c0-5.4-2.6-8.1-7.7-8.1c-1.2,0-2.4,0.2-3.5,0.6c-1.1,0.4-2.1,1.1-3,2
	c-1.7,1.7-2.6,4.2-2.6,7.3v26.6h-14.4V18.1h14v6.8C234.1,19.6,239.1,17,245.3,17z M300,44.8V18.1h14.4v47.8h-14v-6.8
	c-3.7,5.2-8.7,7.9-14.9,7.9c-5,0-9-1.5-12-4.6c-3-3.1-4.5-7.4-4.5-13V18.2h14.4v28.4c0,5.4,2.5,8.1,7.6,8.1c1.2,0,2.4-0.2,3.5-0.6
	c1.1-0.4,2.1-1.1,3-2C299.1,50.4,300,47.9,300,44.8L300,44.8z M369.8,43.4v2.9h-35.2c0.5,3.3,1.7,5.8,3.6,7.5
	c1.9,1.7,4.3,2.6,7.3,2.6c4.7,0,7.9-1.8,9.6-5.4h13.6c-1.2,4.8-4.1,9-8.2,11.7c-4.2,2.9-9.2,4.3-15,4.3c-7.4,0-13.3-2.3-17.9-6.8
	c-4.5-4.6-6.8-10.6-6.8-18.1c0-7.6,2.2-13.6,6.7-18.1c4.4-4.6,10.4-6.9,17.8-6.9c7.4,0,13.3,2.4,17.9,7.1
	C367.6,29,369.8,35.4,369.8,43.4L369.8,43.4z M345.1,27.7c-5.9,0-9.4,3.1-10.4,9.4h21c-0.5-3-1.7-5.3-3.5-6.9
	C350.4,28.5,348,27.7,345.1,27.7L345.1,27.7z M423.5,43.5L415.3,33l-9.2-11.8L389.6,0h-18.4L396.9,33l-25.7,32.9h18.4l16.5-21.1
	l16.5,21.1H441L423.5,43.5z M441,0h-18.4l-16.5,21.1h18.4L441,0z"/>
<radialGradient id="SVGID_00000031916743405330280680000000913009762589411983_" cx="-76.5215" cy="453.5178" r="1" gradientTransform="matrix(377.3093 118.2589 75.47 -240.7898 -5368.4561 118241.7344)" gradientUnits="userSpaceOnUse">
	<stop  offset="0" style="stop-color:#D04C5F;stop-opacity:0.69"/>
	<stop  offset="1" style="stop-color:#8D8D8D;stop-opacity:0"/>
</radialGradient>
<path style="fill:url(#SVGID_00000031916743405330280680000000913009762589411983_);" d="M53.6,49.5l0.5,9.3c0.1,3,0.7,5.3,1.8,7.1
	h-16c-1-1.9-1.5-4.3-1.6-7.2L38,51.3c-0.1-3.6-0.9-6.2-2.4-7.5c-1.5-1.4-3.9-2.1-7.2-2.1H15.6v24.2H0V0h31.1
	c7.7,0,13.6,1.7,17.7,5.1c4.1,3.4,6.1,8.1,6.1,13.9c0,7.6-3.5,12.8-10.6,15.6c3.4,1.1,5.7,2.8,7.1,5.1
	C52.6,42.1,53.4,45.3,53.6,49.5z M15.6,12.5v17.4h13.7c3,0,5.3-0.8,7-2.3c1.7-1.5,2.5-3.7,2.5-6.5c0-5.7-3.3-8.6-9.8-8.6L15.6,12.5z
	 M108.9,43.4v2.9H73.7c0.5,3.3,1.7,5.8,3.6,7.5c1.9,1.7,4.3,2.6,7.3,2.6c4.7,0,7.9-1.8,9.6-5.4h13.7c-1.2,4.8-4.1,9-8.2,11.7
	c-4.2,2.9-9.2,4.3-15,4.3c-7.4,0-13.3-2.3-17.9-6.8c-4.5-4.6-6.8-10.6-6.8-18.1c0-7.6,2.2-13.6,6.7-18.1C71,19.3,76.9,17,84.4,17
	c7.4,0,13.3,2.4,17.9,7.1C106.7,29,108.9,35.4,108.9,43.4L108.9,43.4z M84.2,27.7c-5.9,0-9.4,3.1-10.4,9.4h21
	c-0.5-3-1.7-5.3-3.5-6.9C89.4,28.5,87.1,27.7,84.2,27.7L84.2,27.7z M143.1,25.4l2.5-7.2h14.8l-17,47.8h-17.1l-17-47.8h15.5l2.5,7.2
	c1.3,4.6,2.6,9,3.8,13.4c1.2,4.3,2.2,7.7,2.9,10.2c0.7,2.4,1.1,4,1.3,4.7c0.2-0.7,0.6-2.2,1.3-4.7c0.7-2.4,1.6-5.8,2.9-10.2
	C140.6,34.4,141.8,29.9,143.1,25.4L143.1,25.4z M209.6,43.4v2.9h-35.2c0.5,3.3,1.7,5.8,3.6,7.5c1.9,1.7,4.3,2.6,7.3,2.6
	c4.7,0,7.9-1.8,9.6-5.4h13.6c-1.2,4.8-4.1,9-8.2,11.7c-4.2,2.9-9.2,4.3-15,4.3c-7.4,0-13.3-2.3-17.9-6.8c-4.5-4.6-6.8-10.6-6.8-18.1
	c0-7.6,2.2-13.6,6.7-18.1c4.4-4.6,10.4-6.9,17.8-6.9c7.4,0,13.3,2.4,17.9,7.1C207.4,29,209.6,35.4,209.6,43.4L209.6,43.4z
	 M184.9,27.7c-5.9,0-9.4,3.1-10.4,9.4h21c-0.5-3-1.7-5.3-3.5-6.9C190.2,28.5,187.9,27.7,184.9,27.7z M245.3,17c5,0,9,1.5,12,4.6
	c3,3.1,4.5,7.4,4.5,13v31.3h-14.4V37.5c0-5.4-2.6-8.1-7.7-8.1c-1.2,0-2.4,0.2-3.5,0.6c-1.1,0.4-2.1,1.1-3,2
	c-1.7,1.7-2.6,4.2-2.6,7.3v26.6h-14.4V18.1h14v6.8C234.1,19.6,239.1,17,245.3,17z M300,44.8V18.1h14.4v47.8h-14v-6.8
	c-3.7,5.2-8.7,7.9-14.9,7.9c-5,0-9-1.5-12-4.6c-3-3.1-4.5-7.4-4.5-13V18.2h14.4v28.4c0,5.4,2.5,8.1,7.6,8.1c1.2,0,2.4-0.2,3.5-0.6
	c1.1-0.4,2.1-1.1,3-2C299.1,50.4,300,47.9,300,44.8L300,44.8z M369.8,43.4v2.9h-35.2c0.5,3.3,1.7,5.8,3.6,7.5
	c1.9,1.7,4.3,2.6,7.3,2.6c4.7,0,7.9-1.8,9.6-5.4h13.6c-1.2,4.8-4.1,9-8.2,11.7c-4.2,2.9-9.2,4.3-15,4.3c-7.4,0-13.3-2.3-17.9-6.8
	c-4.5-4.6-6.8-10.6-6.8-18.1c0-7.6,2.2-13.6,6.7-18.1c4.4-4.6,10.4-6.9,17.8-6.9c7.4,0,13.3,2.4,17.9,7.1
	C367.6,29,369.8,35.4,369.8,43.4L369.8,43.4z M345.1,27.7c-5.9,0-9.4,3.1-10.4,9.4h21c-0.5-3-1.7-5.3-3.5-6.9
	C350.4,28.5,348,27.7,345.1,27.7L345.1,27.7z M423.5,43.5L415.3,33l-9.2-11.8L389.6,0h-18.4L396.9,33l-25.7,32.9h18.4l16.5-21.1
	l16.5,21.1H441L423.5,43.5z M441,0h-18.4l-16.5,21.1h18.4L441,0z"/>
</svg>
