<svg fill="none" viewBox="0 0 2579 1480" xmlns="http://www.w3.org/2000/svg" xmlns:xlink="http://www.w3.org/1999/xlink" class="Hero_background___6kFe"><filter id="a" color-interpolation-filters="sRGB" filterUnits="userSpaceOnUse" height="815.474" width="1553.17" x="894.738" y="157.321"><feFlood flood-opacity="0" result="BackgroundImageFix"></feFlood><feBlend in="SourceGraphic" in2="BackgroundImageFix" mode="normal" result="shape"></feBlend><feGaussianBlur result="effect1_foregroundBlur_1585_17153" stdDeviation="10.7318"></feGaussianBlur></filter><filter id="b" color-interpolation-filters="sRGB" filterUnits="userSpaceOnUse" height="791.013" width="1528.71" x="906.969" y="169.552"><feFlood flood-opacity="0" result="BackgroundImageFix"></feFlood><feBlend in="SourceGraphic" in2="BackgroundImageFix" mode="normal" result="shape"></feBlend><feGaussianBlur result="effect1_foregroundBlur_1585_17153" stdDeviation="7.38083"></feGaussianBlur></filter><filter id="c" color-interpolation-filters="sRGB" filterUnits="userSpaceOnUse" height="815.474" width="1553.17" x="0.802118" y="510.883"><feFlood flood-opacity="0" result="BackgroundImageFix"></feFlood><feBlend in="SourceGraphic" in2="BackgroundImageFix" mode="normal" result="shape"></feBlend><feGaussianBlur result="effect1_foregroundBlur_1585_17153" stdDeviation="10.7318"></feGaussianBlur></filter><filter id="d" color-interpolation-filters="sRGB" filterUnits="userSpaceOnUse" height="791.014" width="1528.71" x="13.0328" y="523.114"><feFlood flood-opacity="0" result="BackgroundImageFix"></feFlood><feBlend in="SourceGraphic" in2="BackgroundImageFix" mode="normal" result="shape"></feBlend><feGaussianBlur result="effect1_foregroundBlur_1585_17153" stdDeviation="7.38108"></feGaussianBlur></filter><filter id="e" color-interpolation-filters="sRGB" filterUnits="userSpaceOnUse" height="448.303" width="693.986" x="1760.42" y="251.515"><feFlood flood-opacity="0" result="BackgroundImageFix"></feFlood><feBlend in="SourceGraphic" in2="BackgroundImageFix" mode="normal" result="shape"></feBlend><feGaussianBlur result="effect1_foregroundBlur_1585_17153" stdDeviation="6.82507"></feGaussianBlur></filter><filter id="f" color-interpolation-filters="sRGB" filterUnits="userSpaceOnUse" height="399.776" width="677.178" x="1768.83" y="296.884"><feFlood flood-opacity="0" result="BackgroundImageFix"></feFlood><feColorMatrix in="SourceAlpha" result="hardAlpha" type="matrix" values="0 0 0 0 0 0 0 0 0 0 0 0 0 0 0 0 0 0 127 0"></feColorMatrix><feOffset dy="5.24628"></feOffset><feGaussianBlur stdDeviation="2.62314"></feGaussianBlur><feComposite in2="hardAlpha" operator="out"></feComposite><feColorMatrix type="matrix" values="0 0 0 0 0 0 0 0 0 0 0 0 0 0 0 0 0 0 0.75 0"></feColorMatrix><feBlend in2="BackgroundImageFix" mode="normal" result="effect1_dropShadow_1585_17153"></feBlend><feBlend in="SourceGraphic" in2="effect1_dropShadow_1585_17153" mode="normal" result="shape"></feBlend><feColorMatrix in="SourceAlpha" result="hardAlpha" type="matrix" values="0 0 0 0 0 0 0 0 0 0 0 0 0 0 0 0 0 0 127 0"></feColorMatrix><feOffset dy="-21.8639"></feOffset><feGaussianBlur stdDeviation="2.1862"></feGaussianBlur><feComposite in2="hardAlpha" k2="-1" k3="1" operator="arithmetic"></feComposite><feColorMatrix type="matrix" values="0 0 0 0 0.028125 0 0 0 0 0.028125 0 0 0 0 0.0833333 0 0 0 0.7 0"></feColorMatrix><feBlend in2="shape" mode="normal" result="effect2_innerShadow_1585_17153"></feBlend></filter><filter id="g" color-interpolation-filters="sRGB" filterUnits="userSpaceOnUse" height="408.974" width="676.286" x="1764.47" y="241.102"><feFlood flood-opacity="0" result="BackgroundImageFix"></feFlood><feBlend in="SourceGraphic" in2="BackgroundImageFix" mode="normal" result="shape"></feBlend><feColorMatrix in="SourceAlpha" result="hardAlpha" type="matrix" values="0 0 0 0 0 0 0 0 0 0 0 0 0 0 0 0 0 0 127 0"></feColorMatrix><feOffset dx="-14.4362" dy="-19.2723"></feOffset><feGaussianBlur stdDeviation="4.80004"></feGaussianBlur><feComposite in2="hardAlpha" k2="-1" k3="1" operator="arithmetic"></feComposite><feColorMatrix type="matrix" values="0 0 0 0 0.968627 0 0 0 0 0.403922 0 0 0 0 0.317647 0 0 0 0.3 0"></feColorMatrix><feBlend in2="shape" mode="normal" result="effect1_innerShadow_1585_17153"></feBlend><feColorMatrix in="SourceAlpha" result="hardAlpha" type="matrix" values="0 0 0 0 0 0 0 0 0 0 0 0 0 0 0 0 0 0 127 0"></feColorMatrix><feOffset dy="-30.0789"></feOffset><feGaussianBlur stdDeviation="12.0315"></feGaussianBlur><feComposite in2="hardAlpha" k2="-1" k3="1" operator="arithmetic"></feComposite><feColorMatrix type="matrix" values="0 0 0 0 0.444774 0 0 0 0 0.454063 0 0 0 0 0.779167 0 0 0 0.19 0"></feColorMatrix><feBlend in2="effect1_innerShadow_1585_17153" mode="normal" result="effect2_innerShadow_1585_17153"></feBlend></filter><filter id="h" color-interpolation-filters="sRGB" filterUnits="userSpaceOnUse" height="272.481" width="401.18" x="1915.29" y="329.972"><feFlood flood-opacity="0" result="BackgroundImageFix"></feFlood><feColorMatrix in="SourceAlpha" result="hardAlpha" type="matrix" values="0 0 0 0 0 0 0 0 0 0 0 0 0 0 0 0 0 0 127 0"></feColorMatrix><feOffset dy="43.3086"></feOffset><feGaussianBlur stdDeviation="14.4362"></feGaussianBlur><feComposite in2="hardAlpha" operator="out"></feComposite><feColorMatrix type="matrix" values="0 0 0 0 0 0 0 0 0 0 0 0 0 0 0 0 0 0 0.95 0"></feColorMatrix><feBlend in2="BackgroundImageFix" mode="normal" result="effect1_dropShadow_1585_17153"></feBlend><feBlend in="SourceGraphic" in2="effect1_dropShadow_1585_17153" mode="normal" result="shape"></feBlend></filter><filter id="i" color-interpolation-filters="sRGB" filterUnits="userSpaceOnUse" height="404.629" width="658.565" x="1778.13" y="240.872"><feFlood flood-opacity="0" result="BackgroundImageFix"></feFlood><feBlend in="SourceGraphic" in2="BackgroundImageFix" mode="normal" result="shape"></feBlend><feGaussianBlur result="effect1_foregroundBlur_1585_17153" stdDeviation="14.4362"></feGaussianBlur></filter><filter id="j" color-interpolation-filters="sRGB" filterUnits="userSpaceOnUse" height="300.859" width="458.697" x="1259.14" y="470.455"><feFlood flood-opacity="0" result="BackgroundImageFix"></feFlood><feColorMatrix in="SourceAlpha" result="hardAlpha" type="matrix" values="0 0 0 0 0 0 0 0 0 0 0 0 0 0 0 0 0 0 127 0"></feColorMatrix><feOffset dy="21.4635"></feOffset><feGaussianBlur stdDeviation="10.7318"></feGaussianBlur><feComposite in2="hardAlpha" operator="out"></feComposite><feColorMatrix type="matrix" values="0 0 0 0 0 0 0 0 0 0 0 0 0 0 0 0 0 0 0.75 0"></feColorMatrix><feBlend in2="BackgroundImageFix" mode="normal" result="effect1_dropShadow_1585_17153"></feBlend><feBlend in="SourceGraphic" in2="effect1_dropShadow_1585_17153" mode="normal" result="shape"></feBlend><feColorMatrix in="SourceAlpha" result="hardAlpha" type="matrix" values="0 0 0 0 0 0 0 0 0 0 0 0 0 0 0 0 0 0 127 0"></feColorMatrix><feOffset dy="-89.4492"></feOffset><feGaussianBlur stdDeviation="8.94415"></feGaussianBlur><feComposite in2="hardAlpha" k2="-1" k3="1" operator="arithmetic"></feComposite><feColorMatrix type="matrix" values="0 0 0 0 0.028125 0 0 0 0 0.028125 0 0 0 0 0.0833333 0 0 0 1 0"></feColorMatrix><feBlend in2="shape" mode="normal" result="effect2_innerShadow_1585_17153"></feBlend></filter><filter id="k" color-interpolation-filters="sRGB" filterUnits="userSpaceOnUse" height="258.504" width="423.894" x="1272.98" y="451.225"><feFlood flood-opacity="0" result="BackgroundImageFix"></feFlood><feBlend in="SourceGraphic" in2="BackgroundImageFix" mode="normal" result="shape"></feBlend><feColorMatrix in="SourceAlpha" result="hardAlpha" type="matrix" values="0 0 0 0 0 0 0 0 0 0 0 0 0 0 0 0 0 0 127 0"></feColorMatrix><feOffset dx="-10.7318" dy="-14.3269"></feOffset><feGaussianBlur stdDeviation="3.56831"></feGaussianBlur><feComposite in2="hardAlpha" k2="-1" k3="1" operator="arithmetic"></feComposite><feColorMatrix type="matrix" values="0 0 0 0 0.968627 0 0 0 0 0.403922 0 0 0 0 0.317647 0 0 0 0.3 0"></feColorMatrix><feBlend in2="shape" mode="normal" result="effect1_innerShadow_1585_17153"></feBlend><feColorMatrix in="SourceAlpha" result="hardAlpha" type="matrix" values="0 0 0 0 0 0 0 0 0 0 0 0 0 0 0 0 0 0 127 0"></feColorMatrix><feOffset dy="-22.3604"></feOffset><feGaussianBlur stdDeviation="8.94415"></feGaussianBlur><feComposite in2="hardAlpha" k2="-1" k3="1" operator="arithmetic"></feComposite><feColorMatrix type="matrix" values="0 0 0 0 0.444774 0 0 0 0 0.454063 0 0 0 0 0.779167 0 0 0 0.19 0"></feColorMatrix><feBlend in2="effect1_innerShadow_1585_17153" mode="normal" result="effect2_innerShadow_1585_17153"></feBlend></filter><filter id="l" color-interpolation-filters="sRGB" filterUnits="userSpaceOnUse" height="93.1121" width="155.566" x="1331.15" y="508.079"><feFlood flood-opacity="0" result="BackgroundImageFix"></feFlood><feColorMatrix in="SourceAlpha" result="hardAlpha" type="matrix" values="0 0 0 0 0 0 0 0 0 0 0 0 0 0 0 0 0 0 127 0"></feColorMatrix><feOffset dy="3.90004"></feOffset><feGaussianBlur stdDeviation="1.95002"></feGaussianBlur><feComposite in2="hardAlpha" operator="out"></feComposite><feColorMatrix type="matrix" values="0 0 0 0 0 0 0 0 0 0 0 0 0 0 0 0 0 0 1 0"></feColorMatrix><feBlend in2="BackgroundImageFix" mode="normal" result="effect1_dropShadow_1585_17153"></feBlend><feBlend in="SourceGraphic" in2="effect1_dropShadow_1585_17153" mode="normal" result="shape"></feBlend></filter><filter id="m" color-interpolation-filters="sRGB" filterUnits="userSpaceOnUse" height="111.813" width="215.187" x="1390.06" y="560.454"><feFlood flood-opacity="0" result="BackgroundImageFix"></feFlood><feColorMatrix in="SourceAlpha" result="hardAlpha" type="matrix" values="0 0 0 0 0 0 0 0 0 0 0 0 0 0 0 0 0 0 127 0"></feColorMatrix><feOffset dy="3.90004"></feOffset><feGaussianBlur stdDeviation="1.95002"></feGaussianBlur><feComposite in2="hardAlpha" operator="out"></feComposite><feColorMatrix type="matrix" values="0 0 0 0 0 0 0 0 0 0 0 0 0 0 0 0 0 0 0.25 0"></feColorMatrix><feBlend in2="BackgroundImageFix" mode="normal" result="effect1_dropShadow_1585_17153"></feBlend><feBlend in="SourceGraphic" in2="effect1_dropShadow_1585_17153" mode="normal" result="shape"></feBlend></filter><filter id="n" color-interpolation-filters="sRGB" filterUnits="userSpaceOnUse" height="120.565" width="215.187" x="1390.06" y="558.526"><feFlood flood-opacity="0" result="BackgroundImageFix"></feFlood><feColorMatrix in="SourceAlpha" result="hardAlpha" type="matrix" values="0 0 0 0 0 0 0 0 0 0 0 0 0 0 0 0 0 0 127 0"></feColorMatrix><feOffset dy="3.90004"></feOffset><feGaussianBlur stdDeviation="1.95002"></feGaussianBlur><feComposite in2="hardAlpha" operator="out"></feComposite><feColorMatrix type="matrix" values="0 0 0 0 0 0 0 0 0 0 0 0 0 0 0 0 0 0 1 0"></feColorMatrix><feBlend in2="BackgroundImageFix" mode="normal" result="effect1_dropShadow_1585_17153"></feBlend><feBlend in="SourceGraphic" in2="effect1_dropShadow_1585_17153" mode="normal" result="shape"></feBlend></filter><filter id="o" color-interpolation-filters="sRGB" filterUnits="userSpaceOnUse" height="111.813" width="215.187" x="1390.06" y="567.278"><feFlood flood-opacity="0" result="BackgroundImageFix"></feFlood><feColorMatrix in="SourceAlpha" result="hardAlpha" type="matrix" values="0 0 0 0 0 0 0 0 0 0 0 0 0 0 0 0 0 0 127 0"></feColorMatrix><feOffset dy="3.90004"></feOffset><feGaussianBlur stdDeviation="1.95002"></feGaussianBlur><feComposite in2="hardAlpha" operator="out"></feComposite><feColorMatrix type="matrix" values="0 0 0 0 0 0 0 0 0 0 0 0 0 0 0 0 0 0 0.25 0"></feColorMatrix><feBlend in2="BackgroundImageFix" mode="normal" result="effect1_dropShadow_1585_17153"></feBlend><feBlend in="SourceGraphic" in2="effect1_dropShadow_1585_17153" mode="normal" result="shape"></feBlend></filter><filter id="p" color-interpolation-filters="sRGB" filterUnits="userSpaceOnUse" height="111.813" width="215.187" x="1390.06" y="566.304"><feFlood flood-opacity="0" result="BackgroundImageFix"></feFlood><feColorMatrix in="SourceAlpha" result="hardAlpha" type="matrix" values="0 0 0 0 0 0 0 0 0 0 0 0 0 0 0 0 0 0 127 0"></feColorMatrix><feOffset dy="3.90004"></feOffset><feGaussianBlur stdDeviation="1.95002"></feGaussianBlur><feComposite in2="hardAlpha" operator="out"></feComposite><feColorMatrix type="matrix" values="0 0 0 0 0 0 0 0 0 0 0 0 0 0 0 0 0 0 0.25 0"></feColorMatrix><feBlend in2="BackgroundImageFix" mode="normal" result="effect1_dropShadow_1585_17153"></feBlend><feBlend in="SourceGraphic" in2="effect1_dropShadow_1585_17153" mode="normal" result="shape"></feBlend></filter><filter id="q" color-interpolation-filters="sRGB" filterUnits="userSpaceOnUse" height="260.459" width="419.702" x="1278.64" y="451.614"><feFlood flood-opacity="0" result="BackgroundImageFix"></feFlood><feBlend in="SourceGraphic" in2="BackgroundImageFix" mode="normal" result="shape"></feBlend><feGaussianBlur result="effect1_foregroundBlur_1585_17153" stdDeviation="10.7318"></feGaussianBlur></filter><filter id="r" color-interpolation-filters="sRGB" filterUnits="userSpaceOnUse" height="783.232" width="1194.13" x="565.692" y="695.982"><feFlood flood-opacity="0" result="BackgroundImageFix"></feFlood><feColorMatrix in="SourceAlpha" result="hardAlpha" type="matrix" values="0 0 0 0 0 0 0 0 0 0 0 0 0 0 0 0 0 0 127 0"></feColorMatrix><feOffset dy="55.8763"></feOffset><feGaussianBlur stdDeviation="27.9381"></feGaussianBlur><feComposite in2="hardAlpha" operator="out"></feComposite><feColorMatrix type="matrix" values="0 0 0 0 0 0 0 0 0 0 0 0 0 0 0 0 0 0 0.75 0"></feColorMatrix><feBlend in2="BackgroundImageFix" mode="normal" result="effect1_dropShadow_1585_17153"></feBlend><feBlend in="SourceGraphic" in2="effect1_dropShadow_1585_17153" mode="normal" result="shape"></feBlend><feColorMatrix in="SourceAlpha" result="hardAlpha" type="matrix" values="0 0 0 0 0 0 0 0 0 0 0 0 0 0 0 0 0 0 127 0"></feColorMatrix><feOffset dy="-232.864"></feOffset><feGaussianBlur stdDeviation="23.2844"></feGaussianBlur><feComposite in2="hardAlpha" k2="-1" k3="1" operator="arithmetic"></feComposite><feColorMatrix type="matrix" values="0 0 0 0 0.028125 0 0 0 0 0.028125 0 0 0 0 0.0833333 0 0 0 1 0"></feColorMatrix><feBlend in2="shape" mode="normal" result="effect2_innerShadow_1585_17153"></feBlend></filter><filter id="s" color-interpolation-filters="sRGB" filterUnits="userSpaceOnUse" height="672.966" width="1103.53" x="601.702" y="645.919"><feFlood flood-opacity="0" result="BackgroundImageFix"></feFlood><feBlend in="SourceGraphic" in2="BackgroundImageFix" mode="normal" result="shape"></feBlend><feColorMatrix in="SourceAlpha" result="hardAlpha" type="matrix" values="0 0 0 0 0 0 0 0 0 0 0 0 0 0 0 0 0 0 127 0"></feColorMatrix><feOffset dx="-27.9381" dy="-37.2974"></feOffset><feGaussianBlur stdDeviation="9.28943"></feGaussianBlur><feComposite in2="hardAlpha" k2="-1" k3="1" operator="arithmetic"></feComposite><feColorMatrix type="matrix" values="0 0 0 0 0.968627 0 0 0 0 0.403922 0 0 0 0 0.317647 0 0 0 0.13 0"></feColorMatrix><feBlend in2="shape" mode="normal" result="effect1_innerShadow_1585_17153"></feBlend><feColorMatrix in="SourceAlpha" result="hardAlpha" type="matrix" values="0 0 0 0 0 0 0 0 0 0 0 0 0 0 0 0 0 0 127 0"></feColorMatrix><feOffset dy="-58.211"></feOffset><feGaussianBlur stdDeviation="23.2844"></feGaussianBlur><feComposite in2="hardAlpha" k2="-1" k3="1" operator="arithmetic"></feComposite><feColorMatrix type="matrix" values="0 0 0 0 0.444774 0 0 0 0 0.454063 0 0 0 0 0.779167 0 0 0 0.19 0"></feColorMatrix><feBlend in2="effect1_innerShadow_1585_17153" mode="normal" result="effect2_innerShadow_1585_17153"></feBlend></filter><filter id="t" color-interpolation-filters="sRGB" filterUnits="userSpaceOnUse" height="309.266" width="520.8" x="746.294" y="752.523"><feFlood flood-opacity="0" result="BackgroundImageFix"></feFlood><feColorMatrix in="SourceAlpha" result="hardAlpha" type="matrix" values="0 0 0 0 0 0 0 0 0 0 0 0 0 0 0 0 0 0 127 0"></feColorMatrix><feOffset dy="10.153"></feOffset><feGaussianBlur stdDeviation="5.07652"></feGaussianBlur><feComposite in2="hardAlpha" operator="out"></feComposite><feColorMatrix type="matrix" values="0 0 0 0 0 0 0 0 0 0 0 0 0 0 0 0 0 0 1 0"></feColorMatrix><feBlend in2="BackgroundImageFix" mode="normal" result="effect1_dropShadow_1585_17153"></feBlend><feBlend in="SourceGraphic" in2="effect1_dropShadow_1585_17153" mode="normal" result="shape"></feBlend></filter><filter id="u" color-interpolation-filters="sRGB" filterUnits="userSpaceOnUse" height="291.086" width="560.197" x="906.515" y="930.276"><feFlood flood-opacity="0" result="BackgroundImageFix"></feFlood><feColorMatrix in="SourceAlpha" result="hardAlpha" type="matrix" values="0 0 0 0 0 0 0 0 0 0 0 0 0 0 0 0 0 0 127 0"></feColorMatrix><feOffset dy="10.153"></feOffset><feGaussianBlur stdDeviation="5.07652"></feGaussianBlur><feComposite in2="hardAlpha" operator="out"></feComposite><feColorMatrix type="matrix" values="0 0 0 0 0 0 0 0 0 0 0 0 0 0 0 0 0 0 0.25 0"></feColorMatrix><feBlend in2="BackgroundImageFix" mode="normal" result="effect1_dropShadow_1585_17153"></feBlend><feBlend in="SourceGraphic" in2="effect1_dropShadow_1585_17153" mode="normal" result="shape"></feBlend></filter><filter id="v" color-interpolation-filters="sRGB" filterUnits="userSpaceOnUse" height="313.872" width="560.197" x="906.515" y="925.258"><feFlood flood-opacity="0" result="BackgroundImageFix"></feFlood><feColorMatrix in="SourceAlpha" result="hardAlpha" type="matrix" values="0 0 0 0 0 0 0 0 0 0 0 0 0 0 0 0 0 0 127 0"></feColorMatrix><feOffset dy="10.153"></feOffset><feGaussianBlur stdDeviation="5.07652"></feGaussianBlur><feComposite in2="hardAlpha" operator="out"></feComposite><feColorMatrix type="matrix" values="0 0 0 0 0 0 0 0 0 0 0 0 0 0 0 0 0 0 1 0"></feColorMatrix><feBlend in2="BackgroundImageFix" mode="normal" result="effect1_dropShadow_1585_17153"></feBlend><feBlend in="SourceGraphic" in2="effect1_dropShadow_1585_17153" mode="normal" result="shape"></feBlend></filter><filter id="w" color-interpolation-filters="sRGB" filterUnits="userSpaceOnUse" height="291.086" width="560.197" x="906.515" y="948.045"><feFlood flood-opacity="0" result="BackgroundImageFix"></feFlood><feColorMatrix in="SourceAlpha" result="hardAlpha" type="matrix" values="0 0 0 0 0 0 0 0 0 0 0 0 0 0 0 0 0 0 127 0"></feColorMatrix><feOffset dy="10.153"></feOffset><feGaussianBlur stdDeviation="5.07652"></feGaussianBlur><feComposite in2="hardAlpha" operator="out"></feComposite><feColorMatrix type="matrix" values="0 0 0 0 0 0 0 0 0 0 0 0 0 0 0 0 0 0 0.25 0"></feColorMatrix><feBlend in2="BackgroundImageFix" mode="normal" result="effect1_dropShadow_1585_17153"></feBlend><feBlend in="SourceGraphic" in2="effect1_dropShadow_1585_17153" mode="normal" result="shape"></feBlend></filter><filter id="x" color-interpolation-filters="sRGB" filterUnits="userSpaceOnUse" height="291.086" width="560.197" x="906.515" y="945.507"><feFlood flood-opacity="0" result="BackgroundImageFix"></feFlood><feColorMatrix in="SourceAlpha" result="hardAlpha" type="matrix" values="0 0 0 0 0 0 0 0 0 0 0 0 0 0 0 0 0 0 127 0"></feColorMatrix><feOffset dy="10.153"></feOffset><feGaussianBlur stdDeviation="5.07652"></feGaussianBlur><feComposite in2="hardAlpha" operator="out"></feComposite><feColorMatrix type="matrix" values="0 0 0 0 0 0 0 0 0 0 0 0 0 0 0 0 0 0 0.25 0"></feColorMatrix><feBlend in2="BackgroundImageFix" mode="normal" result="effect1_dropShadow_1585_17153"></feBlend><feBlend in="SourceGraphic" in2="effect1_dropShadow_1585_17153" mode="normal" result="shape"></feBlend></filter><linearGradient id="y"><stop offset="0" stop-color="#8c8ed3"></stop><stop offset="1" stop-color="#999" stop-opacity="0"></stop></linearGradient><linearGradient id="z" gradientUnits="userSpaceOnUse" x1="1671.32" x2="1671.32" xlink:href="#y" y1="189.518" y2="940.598"></linearGradient><linearGradient id="A" gradientUnits="userSpaceOnUse" x1="2570.95" x2="2034.7" y1="-46.3136" y2="385.129"><stop offset="0.440653" stop-color="#fb5e46"></stop><stop offset="1" stop-color="#999" stop-opacity="0"></stop></linearGradient><linearGradient id="B" gradientUnits="userSpaceOnUse" x1="1116.24" x2="1709.53" y1="418.766" y2="565.505"><stop offset="0"></stop><stop offset="1" stop-opacity="0"></stop></linearGradient><linearGradient id="C" gradientUnits="userSpaceOnUse" x1="777.387" x2="777.387" xlink:href="#y" y1="543.081" y2="1294.16"></linearGradient><linearGradient id="D" gradientUnits="userSpaceOnUse" x1="1030.92" x2="1075.77" y1="736.62" y2="805.358"><stop offset="0" stop-color="#fff"></stop><stop offset="1"></stop></linearGradient><linearGradient id="E"><stop offset="0" stop-color="#161623"></stop><stop offset="1" stop-color="#5e3c48"></stop></linearGradient><linearGradient id="F" gradientUnits="userSpaceOnUse" x1="38.8912" x2="-7.03167" xlink:href="#E" y1="115.302" y2="607.046"></linearGradient><linearGradient id="G"><stop offset="0" stop-color="#fc576e"></stop><stop offset="1" stop-opacity="0"></stop></linearGradient><radialGradient id="H" cx="0" cy="0" gradientTransform="matrix(-448.208 0 0 -448.208 591 271.274)" gradientUnits="userSpaceOnUse" r="1" xlink:href="#G"></radialGradient><linearGradient id="I"><stop offset="0" stop-color="#604d8f"></stop><stop offset="1" stop-color="#3f717e"></stop></linearGradient><linearGradient id="J" gradientUnits="userSpaceOnUse" x1="2236.68" x2="2114.74" xlink:href="#I" y1="355.58" y2="566.794"></linearGradient><linearGradient id="K" gradientUnits="userSpaceOnUse" x1="2236.71" x2="2114.77" xlink:href="#I" y1="333.929" y2="545.141"></linearGradient><linearGradient id="L"><stop offset="0" stop-color="#ffa57a"></stop><stop offset="1" stop-color="#fc576e" stop-opacity="0"></stop></linearGradient><radialGradient id="M" cx="0" cy="0" gradientTransform="matrix(138.98351249 134.90658523 -149.24830217 153.75864146 32.3218 95.6612)" gradientUnits="userSpaceOnUse" r="1" xlink:href="#L"></radialGradient><linearGradient id="N"><stop offset="0" stop-color="#7174c7"></stop><stop offset="1" stop-color="#fc576e" stop-opacity="0"></stop></linearGradient><radialGradient id="O" cx="0" cy="0" gradientTransform="matrix(-140.60025742 -288.209411 238.60168654 -116.39959442 279.584 453.777)" gradientUnits="userSpaceOnUse" r="1" xlink:href="#N"></radialGradient><linearGradient id="P"><stop offset="0" stop-color="#f76751"></stop><stop offset="1" stop-color="#fc576e" stop-opacity="0"></stop></linearGradient><radialGradient id="Q" cx="0" cy="0" gradientTransform="matrix(143.83204937 -218.30349952 201.53828644 132.78607457 46.0586 446.419)" gradientUnits="userSpaceOnUse" r="1" xlink:href="#P"></radialGradient><linearGradient id="R"><stop offset="0" stop-color="#ffdf80"></stop><stop offset="1" stop-color="#fc576e" stop-opacity="0"></stop></linearGradient><radialGradient id="S" cx="0" cy="0" gradientTransform="matrix(-400.79295498 295.56563964 -385.59033134 -522.86824848 443.617 9.81141)" gradientUnits="userSpaceOnUse" r="1" xlink:href="#R"></radialGradient><linearGradient id="T" gradientUnits="userSpaceOnUse" x1="20.4146" x2="-3.69104" xlink:href="#E" y1="60.5237" y2="318.648"></linearGradient><radialGradient id="U" cx="0" cy="0" gradientTransform="matrix(-235.272 0 0 -235.272 310.225 142.396)" gradientUnits="userSpaceOnUse" r="1" xlink:href="#G"></radialGradient><radialGradient id="V" cx="0" cy="0" gradientTransform="matrix(211.93120865 19.34192713 -8.55187622 93.70366525 1387.21 613.655)" gradientUnits="userSpaceOnUse" r="1" xlink:href="#L"></radialGradient><radialGradient id="W" cx="0" cy="0" gradientTransform="matrix(-197.0600728 -25.63910192 14.54139533 -111.76399357 1570 634.167)" gradientUnits="userSpaceOnUse" r="1" xlink:href="#N"></radialGradient><linearGradient id="X"><stop offset="0" stop-color="#ee4b32"></stop><stop offset="1" stop-color="#fc576e" stop-opacity="0"></stop></linearGradient><radialGradient id="Y" cx="0" cy="0" gradientTransform="matrix(-4.02710729 -62.76604186 113.79701311 -7.30128534 1484.47 673.958)" gradientUnits="userSpaceOnUse" r="1" xlink:href="#X"></radialGradient><radialGradient id="Z" cx="0" cy="0" gradientTransform="matrix(-57.86885001 113.25619654 -202.96068936 -103.70383298 1514.36 530.919)" gradientUnits="userSpaceOnUse" r="1" xlink:href="#R"></radialGradient><radialGradient id="aa" cx="0" cy="0" gradientTransform="matrix(211.93120865 19.34192713 -8.55187622 93.70366525 1387.21 620.479)" gradientUnits="userSpaceOnUse" r="1" xlink:href="#L"></radialGradient><radialGradient id="ab" cx="0" cy="0" gradientTransform="matrix(-197.0600728 -25.63910192 14.54139533 -111.76399357 1570 640.991)" gradientUnits="userSpaceOnUse" r="1" xlink:href="#N"></radialGradient><radialGradient id="ac" cx="0" cy="0" gradientTransform="matrix(-4.02710729 -62.76604186 113.79701311 -7.30128534 1484.47 680.782)" gradientUnits="userSpaceOnUse" r="1" xlink:href="#X"></radialGradient><radialGradient id="ad" cx="0" cy="0" gradientTransform="matrix(-57.86885001 113.25619654 -202.96068936 -103.70383298 1514.36 537.743)" gradientUnits="userSpaceOnUse" r="1" xlink:href="#R"></radialGradient><radialGradient id="ae" cx="0" cy="0" gradientTransform="matrix(211.93120865 19.34192713 -8.55187622 93.70366525 1387.21 619.505)" gradientUnits="userSpaceOnUse" r="1" xlink:href="#L"></radialGradient><radialGradient id="af" cx="0" cy="0" gradientTransform="matrix(-197.0600728 -25.63910192 14.54139533 -111.76399357 1570 640.017)" gradientUnits="userSpaceOnUse" r="1" xlink:href="#N"></radialGradient><radialGradient id="ag" cx="0" cy="0" gradientTransform="matrix(-4.02710729 -62.76604186 113.79701311 -7.30128534 1484.47 679.808)" gradientUnits="userSpaceOnUse" r="1" xlink:href="#X"></radialGradient><radialGradient id="ah" cx="0" cy="0" gradientTransform="matrix(-57.86885001 113.25619654 -202.96068936 -103.70383298 1514.36 536.769)" gradientUnits="userSpaceOnUse" r="1" xlink:href="#R"></radialGradient><radialGradient id="ai" cx="0" cy="0" gradientTransform="matrix(211.93120865 19.34192713 -8.55188531 93.70376483 1387.21 611.727)" gradientUnits="userSpaceOnUse" r="1" xlink:href="#L"></radialGradient><radialGradient id="aj" cx="0" cy="0" gradientTransform="matrix(-197.0600728 -25.63910192 14.54139533 -111.76399357 1570 632.239)" gradientUnits="userSpaceOnUse" r="1" xlink:href="#N"></radialGradient><radialGradient id="ak" cx="0" cy="0" gradientTransform="matrix(-4.02710729 -62.76604186 113.79701311 -7.30128534 1484.47 672.03)" gradientUnits="userSpaceOnUse" r="1" xlink:href="#X"></radialGradient><radialGradient id="al" cx="0" cy="0" gradientTransform="matrix(-57.86885001 113.25619654 -202.96068936 -103.70383298 1514.36 528.991)" gradientUnits="userSpaceOnUse" r="1" xlink:href="#R"></radialGradient><radialGradient id="am" cx="0" cy="0" gradientTransform="matrix(72.95502466 70.81496989 -78.34278674 80.71033494 16.9662 50.2141)" gradientUnits="userSpaceOnUse" r="1" xlink:href="#L"></radialGradient><radialGradient id="an" cx="0" cy="0" gradientTransform="matrix(-73.80334085 -151.28576425 125.24611281 -61.10014118 146.758 238.195)" gradientUnits="userSpaceOnUse" r="1" xlink:href="#N"></radialGradient><radialGradient id="ao" cx="0" cy="0" gradientTransform="matrix(75.49962567 -114.59082011 105.79027318 69.7012729 24.1769 234.332)" gradientUnits="userSpaceOnUse" r="1" xlink:href="#P"></radialGradient><radialGradient id="ap" cx="0" cy="0" gradientTransform="matrix(-210.38270008 155.14718147 -202.40242889 -274.46176649 232.862 5.15017)" gradientUnits="userSpaceOnUse" r="1" xlink:href="#R"></radialGradient><radialGradient id="aq" cx="0" cy="0" gradientTransform="matrix(124.50840168 -1.0700843 .6835913 79.5384625 1327.01 598.469)" gradientUnits="userSpaceOnUse" r="1" xlink:href="#L"></radialGradient><radialGradient id="ar" cx="0" cy="0" gradientTransform="matrix(-194.93225863 -38.74260664 19.9252147 -100.25311773 1602.21 627.563)" gradientUnits="userSpaceOnUse" r="1" xlink:href="#N"></radialGradient><radialGradient id="as" cx="0" cy="0" gradientTransform="matrix(-33.85368058 -95.04593277 140.57321247 -50.06969256 1492.7 686.922)" gradientUnits="userSpaceOnUse" r="1" xlink:href="#P"></radialGradient><radialGradient id="at" cx="0" cy="0" gradientTransform="matrix(-47.83175778 182.76560724 -395.32866139 -103.46183323 1474.95 467.989)" gradientUnits="userSpaceOnUse" r="1" xlink:href="#R"></radialGradient><linearGradient id="au" gradientUnits="userSpaceOnUse" x1="53.1457" x2="-9.60892" xlink:href="#E" y1="157.562" y2="829.542"></linearGradient><radialGradient id="av" cx="0" cy="0" gradientTransform="matrix(-612.486 0 0 -612.486 807.614 370.702)" gradientUnits="userSpaceOnUse" r="1"><stop offset="0" stop-color="#7174c7"></stop><stop offset="1" stop-opacity="0"></stop></radialGradient><linearGradient id="aw" gradientUnits="userSpaceOnUse" x1="345.067" x2="1581.66" y1="1334.71" y2="1273.67"><stop offset="0" stop-color="#fa8577"></stop><stop offset="1" stop-color="#fff" stop-opacity="0"></stop></linearGradient><radialGradient id="ax" cx="0" cy="0" gradientTransform="matrix(551.72302544 50.35306796 -22.2632296 243.94017858 899.092 1068.78)" gradientUnits="userSpaceOnUse" r="1" xlink:href="#L"></radialGradient><radialGradient id="ay" cx="0" cy="0" gradientTransform="matrix(-513.01007797 -66.74674117 37.85567512 -290.95567072 1374.94 1122.17)" gradientUnits="userSpaceOnUse" r="1" xlink:href="#N"></radialGradient><radialGradient id="az" cx="0" cy="0" gradientTransform="matrix(-10.48384437 -163.40002051 296.24885968 -19.00750642 1152.29 1225.76)" gradientUnits="userSpaceOnUse" r="1" xlink:href="#X"></radialGradient><radialGradient id="aA" cx="0" cy="0" gradientTransform="matrix(-150.65038345 294.84065148 -528.37100346 -269.97394653 1230.11 853.388)" gradientUnits="userSpaceOnUse" r="1" xlink:href="#R"></radialGradient><radialGradient id="aB" cx="0" cy="0" gradientTransform="matrix(551.72302544 50.35306796 -22.2632296 243.94017858 899.092 1086.54)" gradientUnits="userSpaceOnUse" r="1" xlink:href="#L"></radialGradient><radialGradient id="aC" cx="0" cy="0" gradientTransform="matrix(-513.01007797 -66.74674117 37.85567512 -290.95567072 1374.94 1139.94)" gradientUnits="userSpaceOnUse" r="1" xlink:href="#N"></radialGradient><radialGradient id="aD" cx="0" cy="0" gradientTransform="matrix(-10.48384437 -163.40002051 296.24885968 -19.00750642 1152.29 1243.53)" gradientUnits="userSpaceOnUse" r="1" xlink:href="#X"></radialGradient><radialGradient id="aE" cx="0" cy="0" gradientTransform="matrix(-150.65038345 294.84065148 -528.37100346 -269.97394653 1230.11 871.157)" gradientUnits="userSpaceOnUse" r="1" xlink:href="#R"></radialGradient><radialGradient id="aF" cx="0" cy="0" gradientTransform="matrix(551.72302544 50.35306796 -22.2632296 243.94017858 899.092 1084.01)" gradientUnits="userSpaceOnUse" r="1" xlink:href="#L"></radialGradient><radialGradient id="aG" cx="0" cy="0" gradientTransform="matrix(-513.01007797 -66.74674117 37.85567512 -290.95567072 1374.94 1137.41)" gradientUnits="userSpaceOnUse" r="1" xlink:href="#N"></radialGradient><radialGradient id="aH" cx="0" cy="0" gradientTransform="matrix(-10.48384437 -163.40002051 296.24885968 -19.00750642 1152.29 1240.99)" gradientUnits="userSpaceOnUse" r="1" xlink:href="#X"></radialGradient><radialGradient id="aI" cx="0" cy="0" gradientTransform="matrix(-150.65038345 294.84065148 -528.37100346 -269.97394653 1230.11 868.619)" gradientUnits="userSpaceOnUse" r="1" xlink:href="#R"></radialGradient><linearGradient id="aJ"><stop offset="0" stop-color="#b56564"></stop><stop offset="1" stop-color="#875b79"></stop></linearGradient><linearGradient id="aK" gradientUnits="userSpaceOnUse" x1="1058.11" x2="1209.99" xlink:href="#aJ" y1="1080.13" y2="847.238"></linearGradient><linearGradient id="aL"><stop offset="0" stop-color="#fff"></stop><stop offset="1" stop-color="#5457bb" stop-opacity="0"></stop></linearGradient><radialGradient id="aM" cx="0" cy="0" gradientTransform="matrix(-277.8788848 -212.06278597 1051.41106996 -1377.72846021 1408.74 1218.76)" gradientUnits="userSpaceOnUse" r="1" xlink:href="#aL"></radialGradient><linearGradient id="aN" gradientUnits="userSpaceOnUse" x1="937.19" x2="1181.39" xlink:href="#aJ" y1="1043.67" y2="658.993"></linearGradient><radialGradient id="aO" cx="0" cy="0" gradientTransform="matrix(-66.11012766 -38.1687 147.402 -255.30775314 1334.02 1095.1)" gradientUnits="userSpaceOnUse" r="1" xlink:href="#aL"></radialGradient><g filter="url(#a)" opacity="0.5"><path d="m2415.71 189.518-1488.774 751.08" stroke="url(#z)" stroke-linecap="round" stroke-width="21.4635"></path></g><g filter="url(#b)" opacity="0.5" stroke-linecap="round" stroke-width="10.4073"><path d="m2415.71 189.518-1488.774 751.08" stroke="url(#A)"></path><path d="m2415.71 189.518-1488.774 751.08" stroke="url(#B)"></path></g><g filter="url(#c)" opacity="0.5"><path d="m1521.77 543.081-1488.77 751.079" stroke="url(#C)" stroke-linecap="round" stroke-width="21.4635"></path></g><g filter="url(#d)" opacity="0.5"><path d="m1521.77 543.081-1488.77 751.079" stroke="url(#D)" stroke-linecap="round" stroke-width="10.4073"></path></g><g filter="url(#e)"><g filter="url(#f)"><rect fill="url(#F)" height="544.346" rx="272.173" transform="matrix(.866025 -.5 .866025 .5 1636 493.712)" width="544.346"></rect><rect fill="#000" fill-opacity="0.32" height="544.346" rx="272.173" transform="matrix(.866025 -.5 .866025 .5 1636 493.712)" width="544.346"></rect></g><g filter="url(#g)"><rect fill="#0c0c0c" height="544.346" rx="272.173" transform="matrix(.866025 -.5 .866025 .5 1636 457.621)" width="544.346"></rect><rect fill="url(#H)" fill-opacity="0.3" height="544.346" rx="272.173" transform="matrix(.866025 -.5 .866025 .5 1636 457.621)" width="544.346"></rect></g><g clip-rule="evenodd" fill-rule="evenodd" filter="url(#h)"><path d="m2157.44 496.384c.79 1.518 1.73 3.028 2.83 4.523-.5.13-1.01.261-1.51.39.46.744.97 1.486 1.51 2.223-.33.086-.66.172-1 .258l-.52.136c.47.75.97 1.497 1.52 2.24-.51.131-1.01.262-1.52.392.47.747.97 1.491 1.52 2.231-.39.1-.77.2-1.15.299.36.556.74 1.11 1.15 1.663l-.29.076c-.29.075-.58.149-.87.224.36.56.75 1.118 1.16 1.673-.26.068-.52.136-.79.203.26.371.52.74.79 1.108-.26.068-.52.136-.79.203.26.371.52.74.79 1.109-.26.068-.52.135-.79.203.26.37.52.74.79 1.108l-.34.089-.45.115c.26.37.52.74.79 1.108-28.11 7.305-58.16 13.205-89.68 12.203l.2-.085c-26.01-.193-38.54-9.74-46.35-21.233-8.55-12.069-21.62-20.068-43.74-25.258-27.77-6.337-35.61-13.682-36.54-26.617.01-.303.02-.606.03-.909-.01-.134-.02-.268-.03-.403.01-.303.02-.606.03-.908-.01-.134-.02-.269-.03-.404.01-.303.02-.606.03-.908-.01-.134-.02-.268-.03-.403.01-.303.02-.606.03-.908-.01-.134-.02-.268-.03-.403.02-.452.03-.902.05-1.352-.02-.206-.03-.413-.05-.622.02-.449.03-.896.05-1.343-.02-.205-.03-.411-.05-.618.02-.595.04-1.188.07-1.78-.02-.279-.05-.56-.07-.844.02-.597.04-1.192.07-1.787-.02-.279-.05-.562-.07-.847.02-.592.04-1.184.07-1.773-.02-.278-.05-.557-.07-.84.04-1.165.09-2.325.18-3.479-.08-.579-.13-1.17-.18-1.773 2.23-77.342 115.69-131.619 194.45-90.654 9.83 6.324 15.22 13.154 19.89 19.08 3.49 4.425 6.58 8.346 10.83 11.172 3.54 1.348 7.25 2.564 11.06 3.716-.33-.243-.65-.489-.95-.738.64-.416 1.28-.823 1.93-1.22-.7-.461-1.35-.932-1.93-1.414.63-.413 1.27-.816 1.92-1.211-.7-.456-1.34-.924-1.92-1.403 1.34-.882 2.73-1.723 4.16-2.523-1.61-.863-3.01-1.775-4.16-2.728 28.3-18.61 77.62-18.881 108.16-4.069-1.53 1.103-3.13 2.138-4.8 3.109 1.64.675 3.25 1.389 4.8 2.143-.74.533-1.5 1.051-2.27 1.554.76.344 1.52.697 2.27 1.059-.75.538-1.51 1.06-2.29 1.567.77.346 1.54.702 2.29 1.067-.74.536-1.51 1.056-2.28 1.56.77.346 1.53.7 2.28 1.063-.55.398-1.12.788-1.69 1.168.57.26 1.13.524 1.69.794-.56.4-1.12.792-1.7 1.175.57.261 1.14.527 1.7.798-.37.265-.74.525-1.11.782.37.174.74.351 1.11.529-.37.265-.74.526-1.11.782.37.175.74.351 1.11.53-.37.264-.74.525-1.11.782.37.174.74.351 1.11.529-.37.265-.74.526-1.12.783.38.174.75.351 1.12.529-13.75 9.914-33.49 14.378-52.57 15.153 12.07 9.753 17.54 19.934 16.45 30.566.14 1.301.17 2.61.11 3.925.04.871.04 1.746 0 2.624.04.873.04 1.749 0 2.628.03.762.04 1.526.01 2.292.03.654.03 1.309 0 1.967.02.546.02 1.093.01 1.642.01.436.01.873 0 1.311.01.437.01.874 0 1.311.01.437.01.874 0 1.312.07 2.859-.33 5.75-1.23 8.675-47.37-6.759-84.01 9.93-93.64 31.316.91 2.003 2.09 3.993 3.53 5.958-.94.245-1.89.488-2.83.729z" fill="url(#J)"></path><path d="m2157.44 496.384c.79 1.518 1.73 3.028 2.83 4.523-.5.13-1.01.261-1.51.39.46.744.97 1.486 1.51 2.223-.33.086-.66.172-1 .258l-.52.136c.47.75.97 1.497 1.52 2.24-.51.131-1.01.262-1.52.392.47.747.97 1.491 1.52 2.231-.39.1-.77.2-1.15.299.36.556.74 1.11 1.15 1.663l-.29.076c-.29.075-.58.149-.87.224.36.56.75 1.118 1.16 1.673-.26.068-.52.136-.79.203.26.371.52.74.79 1.108-.26.068-.52.136-.79.203.26.371.52.74.79 1.109-.26.068-.52.135-.79.203.26.37.52.74.79 1.108l-.34.089-.45.115c.26.37.52.74.79 1.108-28.11 7.305-58.16 13.205-89.68 12.203l.2-.085c-26.01-.193-38.54-9.74-46.35-21.233-8.55-12.069-21.62-20.068-43.74-25.258-27.77-6.337-35.61-13.682-36.54-26.617.01-.303.02-.606.03-.909-.01-.134-.02-.268-.03-.403.01-.303.02-.606.03-.908-.01-.134-.02-.269-.03-.404.01-.303.02-.606.03-.908-.01-.134-.02-.268-.03-.403.01-.303.02-.606.03-.908-.01-.134-.02-.268-.03-.403.02-.452.03-.902.05-1.352-.02-.206-.03-.413-.05-.622.02-.449.03-.896.05-1.343-.02-.205-.03-.411-.05-.618.02-.595.04-1.188.07-1.78-.02-.279-.05-.56-.07-.844.02-.597.04-1.192.07-1.787-.02-.279-.05-.562-.07-.847.02-.592.04-1.184.07-1.773-.02-.278-.05-.557-.07-.84.04-1.165.09-2.325.18-3.479-.08-.579-.13-1.17-.18-1.773 2.23-77.342 115.69-131.619 194.45-90.654 9.83 6.324 15.22 13.154 19.89 19.08 3.49 4.425 6.58 8.346 10.83 11.172 3.54 1.348 7.25 2.564 11.06 3.716-.33-.243-.65-.489-.95-.738.64-.416 1.28-.823 1.93-1.22-.7-.461-1.35-.932-1.93-1.414.63-.413 1.27-.816 1.92-1.211-.7-.456-1.34-.924-1.92-1.403 1.34-.882 2.73-1.723 4.16-2.523-1.61-.863-3.01-1.775-4.16-2.728 28.3-18.61 77.62-18.881 108.16-4.069-1.53 1.103-3.13 2.138-4.8 3.109 1.64.675 3.25 1.389 4.8 2.143-.74.533-1.5 1.051-2.27 1.554.76.344 1.52.697 2.27 1.059-.75.538-1.51 1.06-2.29 1.567.77.346 1.54.702 2.29 1.067-.74.536-1.51 1.056-2.28 1.56.77.346 1.53.7 2.28 1.063-.55.398-1.12.788-1.69 1.168.57.26 1.13.524 1.69.794-.56.4-1.12.792-1.7 1.175.57.261 1.14.527 1.7.798-.37.265-.74.525-1.11.782.37.174.74.351 1.11.529-.37.265-.74.526-1.11.782.37.175.74.351 1.11.53-.37.264-.74.525-1.11.782.37.174.74.351 1.11.529-.37.265-.74.526-1.12.783.38.174.75.351 1.12.529-13.75 9.914-33.49 14.378-52.57 15.153 12.07 9.753 17.54 19.934 16.45 30.566.14 1.301.17 2.61.11 3.925.04.871.04 1.746 0 2.624.04.873.04 1.749 0 2.628.03.762.04 1.526.01 2.292.03.654.03 1.309 0 1.967.02.546.02 1.093.01 1.642.01.436.01.873 0 1.311.01.437.01.874 0 1.311.01.437.01.874 0 1.312.07 2.859-.33 5.75-1.23 8.675-47.37-6.759-84.01 9.93-93.64 31.316.91 2.003 2.09 3.993 3.53 5.958-.94.245-1.89.488-2.83.729z" fill="#000" fill-opacity="0.54"></path></g><path d="m2070.81 508.423c-26.01-.193-38.54-9.74-46.34-21.233-8.55-12.069-21.63-20.068-43.75-25.258-27.77-6.336-35.61-13.681-36.53-26.617 2.23-77.343 115.68-131.619 194.44-90.654 17.18 11.046 20.79 23.641 30.73 30.252 19.14 7.303 43.65 10.718 59.45 21.245 18.78 12.76 25.96 26.264 21.6 40.571-67.43-9.621-113.12 28.261-90.12 59.577-28.11 7.304-58.16 13.204-89.67 12.202zm108.66-141.032c28.29-18.61 77.62-18.881 108.15-4.068-31.03 22.382-92.61 16.986-108.15 4.068z" fill="url(#K)"></path><g stroke-linecap="round" stroke-linejoin="round" stroke-width="7.35592"><g opacity="0.4"><rect height="483.212" rx="241.606" stroke="#fc576e" transform="matrix(.866025 -.5 .866025 .5 1688.94 443.187)" width="483.212"></rect><rect height="483.212" rx="241.606" stroke="url(#M)" transform="matrix(.866025 -.5 .866025 .5 1688.94 443.187)" width="483.212"></rect><rect height="483.212" rx="241.606" stroke="url(#O)" transform="matrix(.866025 -.5 .866025 .5 1688.94 443.187)" width="483.212"></rect><rect height="483.212" rx="241.606" stroke="url(#Q)" transform="matrix(.866025 -.5 .866025 .5 1688.94 443.187)" width="483.212"></rect><rect height="483.212" rx="241.606" stroke="url(#S)" transform="matrix(.866025 -.5 .866025 .5 1688.94 443.187)" width="483.212"></rect></g><g filter="url(#i)" opacity="0.4"><rect height="483.212" rx="241.606" stroke="#fc576e" transform="matrix(.866025 -.5 .866025 .5 1688.94 443.187)" width="483.212"></rect><rect height="483.212" rx="241.606" stroke="url(#M)" transform="matrix(.866025 -.5 .866025 .5 1688.94 443.187)" width="483.212"></rect><rect height="483.212" rx="241.606" stroke="url(#O)" transform="matrix(.866025 -.5 .866025 .5 1688.94 443.187)" width="483.212"></rect><rect height="483.212" rx="241.606" stroke="url(#Q)" transform="matrix(.866025 -.5 .866025 .5 1688.94 443.187)" width="483.212"></rect><rect height="483.212" rx="241.606" stroke="url(#S)" transform="matrix(.866025 -.5 .866025 .5 1688.94 443.187)" width="483.212"></rect></g></g></g><g filter="url(#j)"><rect fill="url(#T)" height="285.736" rx="78.0008" transform="matrix(.866025 -.5 .866025 .5 1241.04 608.366)" width="285.736"></rect><rect fill="#000" fill-opacity="0.62" height="285.736" rx="78.0008" transform="matrix(.866025 -.5 .866025 .5 1241.04 608.366)" width="285.736"></rect></g><g filter="url(#k)"><rect fill="#000" height="285.736" rx="77.0258" transform="matrix(.866025 -.5 .866025 .5 1241.04 589.421)" width="285.736"></rect><rect fill="url(#U)" fill-opacity="0.3" height="285.736" rx="77.0258" transform="matrix(.866025 -.5 .866025 .5 1241.04 589.421)" width="285.736"></rect></g><g filter="url(#l)" opacity="0.5"><path d="m1359.54 578.425-6.89-8.279 6.13-3.543 22.3 12.87-4.04 2.332-6.8-3.923c-4.17-2.41-7.81-4.561-10.92-6.452 1.1 1.168 2.25 2.482 3.44 3.94l8.2 9.941-3.47 2.007-17.25-4.718c-3.11-.88-5.36-1.536-6.73-1.97 3.25 1.783 6.96 3.874 11.11 6.272l6.79 3.922-4.07 2.35-22.29-12.869 6.14-3.543 14.68 4.031c.98.277 3.63 1.072 7.95 2.386-1.64-1.724-3.07-3.308-4.28-4.754zm32.53-14.299.93.543-12.08 6.977c1.52.711 3 1.066 4.41 1.066 1.42-.024 2.74-.386 3.95-1.084 1.79-1.037 2.25-2.194 1.38-3.471l3.78-2.187c1.24 1.193 1.67 2.458 1.32 3.796-.38 1.325-1.52 2.542-3.44 3.651-2.4 1.386-5.12 2.061-8.14 2.024-3.03-.036-5.82-.789-8.36-2.259-2.55-1.47-3.86-3.073-3.95-4.808-.06-1.747 1.1-3.308 3.48-4.682 2.44-1.409 5.18-2.066 8.23-1.97 3.05.097 5.88.898 8.49 2.404zm-13.69 1.356c-2.31 1.337-2.38 2.856-.18 4.555l8.1-4.682c-1.35-.59-2.73-.879-4.13-.867s-2.66.343-3.79.994zm16.42-12.876c.36-.205.7-.38 1.03-.524l3.64 2.096-1.01.579c-1.5.867-2.27 1.759-2.31 2.675-.05.892.67 1.765 2.16 2.621l8.2 4.736-3.95 2.277-16.15-9.327 3.82-2.205 2.88 1.663c-1.19-1.723-.63-3.254 1.69-4.591zm11.99-7.068c1.75-1.012 3.64-1.512 5.67-1.5 2.02-.012 3.96.518 5.82 1.591l10.71 6.181-3.95 2.278-10.05-5.802c-2.04-1.181-4.08-1.187-6.1-.018-1 .578-1.49 1.283-1.47 2.114.02.808.67 1.579 1.94 2.314l9.05 5.224-3.95 2.277-22.29-12.869 3.95-2.278 8.29 4.79c-.46-1.687.34-3.121 2.38-4.302zm40.09-4.056-3.95 2.277c-.52-.084-1.32-.379-2.41-.885.48 1.53-.47 2.982-2.85 4.356-1.77 1.024-3.62 1.597-5.54 1.717-1.9.109-3.61-.277-5.13-1.157-2.95-1.699-2.56-3.862 1.16-6.489l2.22-1.536c.71-.53 1.1-.976 1.19-1.338.06-.373-.19-.723-.75-1.048-.69-.398-1.42-.554-2.19-.47-.78.06-1.7.398-2.76 1.012-1.15.663-1.77 1.253-1.88 1.772-.12.506.24 1.054 1.1 1.644l-3.88 2.242c-3.45-2.254-2.86-4.712 1.75-7.375 4.49-2.591 8.35-2.952 11.58-1.085l8.61 4.971c1.42.82 2.66 1.284 3.73 1.392zm-11.09 3.579c1.24-.711 1.9-1.482 2.01-2.314.08-.843-.51-1.633-1.79-2.368l-1.47-.849c-.04.41-.44.892-1.19 1.446l-1.88 1.374c-.91.674-1.42 1.253-1.5 1.735-.08.458.22.886.91 1.283.69.398 1.46.579 2.32.542.85-.06 1.72-.343 2.59-.849zm5.93-19.687c2.21-1.277 4.73-1.855 7.57-1.735 2.84.145 5.54.958 8.11 2.44 2.55 1.47 3.95 3.025 4.2 4.664.23 1.651-.77 3.115-2.98 4.392-2.27 1.314-4.89 1.79-7.86 1.428l2.32 1.338-3.79 2.187-22.29-12.87 3.95-2.277 8.23 4.753c-.5-1.614.34-3.054 2.54-4.32zm8.32 9.4c1.61.108 3.07-.217 4.39-.976 1.29-.748 1.84-1.609 1.66-2.585-.19-.952-1.13-1.916-2.82-2.892-1.65-.952-3.27-1.464-4.85-1.537-1.59-.096-3.05.241-4.39 1.013-1.31.759-1.89 1.608-1.72 2.548s1.09 1.892 2.76 2.856c1.69.976 3.35 1.5 4.97 1.573zm32.4-13.825-3.94 2.277c-.52-.084-1.33-.379-2.41-.885.48 1.53-.47 2.982-2.85 4.356-1.78 1.024-3.62 1.596-5.54 1.717-1.9.108-3.61-.277-5.14-1.157-2.94-1.699-2.55-3.862 1.16-6.489l2.22-1.536c.71-.531 1.11-.976 1.19-1.338.07-.374-.19-.723-.75-1.048-.69-.398-1.42-.555-2.19-.47-.77.06-1.69.397-2.76 1.012-1.14.663-1.77 1.253-1.87 1.771-.13.506.24 1.055 1.09 1.645l-3.88 2.241c-3.44-2.253-2.86-4.711 1.75-7.374 4.49-2.591 8.35-2.953 11.59-1.085l8.61 4.971c1.42.819 2.66 1.283 3.72 1.392zm-11.08 3.579c1.23-.711 1.9-1.483 2-2.314.09-.843-.51-1.633-1.78-2.368l-1.47-.849c-.04.409-.44.891-1.19 1.446l-1.88 1.373c-.92.675-1.42 1.254-1.5 1.736-.09.458.22.885.9 1.283.69.398 1.47.578 2.32.542.86-.06 1.72-.343 2.6-.849z" fill="#fff"></path></g><g filter="url(#m)"><path d="m1597.38 596.268c-2.73 1.573-5.96 2.405-9.7 2.495-3.74 0-6.97-.787-9.7-2.361-2.65-1.529-3.93-3.35-3.85-5.463.15-2.159 1.59-4.025 4.32-5.599 2.57-1.484 5.72-2.226 9.46-2.226 3.66-.045 6.78.674 9.35 2.158 2.72 1.574 4.09 3.441 4.09 5.599-.08 2.114-1.4 3.913-3.97 5.397z" fill="#fc576e"></path><path d="m1597.38 596.268c-2.73 1.573-5.96 2.405-9.7 2.495-3.74 0-6.97-.787-9.7-2.361-2.65-1.529-3.93-3.35-3.85-5.463.15-2.159 1.59-4.025 4.32-5.599 2.57-1.484 5.72-2.226 9.46-2.226 3.66-.045 6.78.674 9.35 2.158 2.72 1.574 4.09 3.441 4.09 5.599-.08 2.114-1.4 3.913-3.97 5.397z" fill="url(#V)"></path><path d="m1597.38 596.268c-2.73 1.573-5.96 2.405-9.7 2.495-3.74 0-6.97-.787-9.7-2.361-2.65-1.529-3.93-3.35-3.85-5.463.15-2.159 1.59-4.025 4.32-5.599 2.57-1.484 5.72-2.226 9.46-2.226 3.66-.045 6.78.674 9.35 2.158 2.72 1.574 4.09 3.441 4.09 5.599-.08 2.114-1.4 3.913-3.97 5.397z" fill="url(#W)"></path><path d="m1597.38 596.268c-2.73 1.573-5.96 2.405-9.7 2.495-3.74 0-6.97-.787-9.7-2.361-2.65-1.529-3.93-3.35-3.85-5.463.15-2.159 1.59-4.025 4.32-5.599 2.57-1.484 5.72-2.226 9.46-2.226 3.66-.045 6.78.674 9.35 2.158 2.72 1.574 4.09 3.441 4.09 5.599-.08 2.114-1.4 3.913-3.97 5.397z" fill="url(#Y)"></path><path d="m1597.38 596.268c-2.73 1.573-5.96 2.405-9.7 2.495-3.74 0-6.97-.787-9.7-2.361-2.65-1.529-3.93-3.35-3.85-5.463.15-2.159 1.59-4.025 4.32-5.599 2.57-1.484 5.72-2.226 9.46-2.226 3.66-.045 6.78.674 9.35 2.158 2.72 1.574 4.09 3.441 4.09 5.599-.08 2.114-1.4 3.913-3.97 5.397z" fill="url(#Z)"></path><path d="m1597.38 596.268c-2.73 1.573-5.96 2.405-9.7 2.495-3.74 0-6.97-.787-9.7-2.361-2.65-1.529-3.93-3.35-3.85-5.463.15-2.159 1.59-4.025 4.32-5.599 2.57-1.484 5.72-2.226 9.46-2.226 3.66-.045 6.78.674 9.35 2.158 2.72 1.574 4.09 3.441 4.09 5.599-.08 2.114-1.4 3.913-3.97 5.397z" fill="#000" fill-opacity="0.6"></path></g><g filter="url(#n)"><g filter="url(#o)"><path d="m1597.38 603.092c-2.73 1.574-5.96 2.406-9.7 2.496-3.74 0-6.97-.787-9.7-2.361-2.65-1.529-3.93-3.351-3.85-5.464.15-2.159 1.59-4.025 4.32-5.599 2.57-1.484 5.72-2.226 9.46-2.226 3.66-.045 6.78.675 9.35 2.159 2.72 1.574 4.09 3.44 4.09 5.598-.08 2.114-1.4 3.913-3.97 5.397z" fill="#fc576e"></path><path d="m1597.38 603.092c-2.73 1.574-5.96 2.406-9.7 2.496-3.74 0-6.97-.787-9.7-2.361-2.65-1.529-3.93-3.351-3.85-5.464.15-2.159 1.59-4.025 4.32-5.599 2.57-1.484 5.72-2.226 9.46-2.226 3.66-.045 6.78.675 9.35 2.159 2.72 1.574 4.09 3.44 4.09 5.598-.08 2.114-1.4 3.913-3.97 5.397z" fill="url(#aa)"></path><path d="m1597.38 603.092c-2.73 1.574-5.96 2.406-9.7 2.496-3.74 0-6.97-.787-9.7-2.361-2.65-1.529-3.93-3.351-3.85-5.464.15-2.159 1.59-4.025 4.32-5.599 2.57-1.484 5.72-2.226 9.46-2.226 3.66-.045 6.78.675 9.35 2.159 2.72 1.574 4.09 3.44 4.09 5.598-.08 2.114-1.4 3.913-3.97 5.397z" fill="url(#ab)"></path><path d="m1597.38 603.092c-2.73 1.574-5.96 2.406-9.7 2.496-3.74 0-6.97-.787-9.7-2.361-2.65-1.529-3.93-3.351-3.85-5.464.15-2.159 1.59-4.025 4.32-5.599 2.57-1.484 5.72-2.226 9.46-2.226 3.66-.045 6.78.675 9.35 2.159 2.72 1.574 4.09 3.44 4.09 5.598-.08 2.114-1.4 3.913-3.97 5.397z" fill="url(#ac)"></path><path d="m1597.38 603.092c-2.73 1.574-5.96 2.406-9.7 2.496-3.74 0-6.97-.787-9.7-2.361-2.65-1.529-3.93-3.351-3.85-5.464.15-2.159 1.59-4.025 4.32-5.599 2.57-1.484 5.72-2.226 9.46-2.226 3.66-.045 6.78.675 9.35 2.159 2.72 1.574 4.09 3.44 4.09 5.598-.08 2.114-1.4 3.913-3.97 5.397z" fill="url(#ad)"></path><path d="m1597.38 603.092c-2.73 1.574-5.96 2.406-9.7 2.496-3.74 0-6.97-.787-9.7-2.361-2.65-1.529-3.93-3.351-3.85-5.464.15-2.159 1.59-4.025 4.32-5.599 2.57-1.484 5.72-2.226 9.46-2.226 3.66-.045 6.78.675 9.35 2.159 2.72 1.574 4.09 3.44 4.09 5.598-.08 2.114-1.4 3.913-3.97 5.397z" fill="#000" fill-opacity="0.6"></path></g><g filter="url(#p)"><path d="m1563.63 603.011c13.99 8.077 13.99 21.173 0 29.25l-55.43 31.998c-13.99 8.077-36.67 8.077-50.66 0l-53.09-30.649c-13.99-8.077-13.99-21.173 0-29.25l55.43-31.998c13.99-8.078 36.67-8.078 50.66 0z" fill="#fc576e"></path><path d="m1563.63 603.011c13.99 8.077 13.99 21.173 0 29.25l-55.43 31.998c-13.99 8.077-36.67 8.077-50.66 0l-53.09-30.649c-13.99-8.077-13.99-21.173 0-29.25l55.43-31.998c13.99-8.078 36.67-8.078 50.66 0z" fill="url(#ae)"></path><path d="m1563.63 603.011c13.99 8.077 13.99 21.173 0 29.25l-55.43 31.998c-13.99 8.077-36.67 8.077-50.66 0l-53.09-30.649c-13.99-8.077-13.99-21.173 0-29.25l55.43-31.998c13.99-8.078 36.67-8.078 50.66 0z" fill="url(#af)"></path><path d="m1563.63 603.011c13.99 8.077 13.99 21.173 0 29.25l-55.43 31.998c-13.99 8.077-36.67 8.077-50.66 0l-53.09-30.649c-13.99-8.077-13.99-21.173 0-29.25l55.43-31.998c13.99-8.078 36.67-8.078 50.66 0z" fill="url(#ag)"></path><path d="m1563.63 603.011c13.99 8.077 13.99 21.173 0 29.25l-55.43 31.998c-13.99 8.077-36.67 8.077-50.66 0l-53.09-30.649c-13.99-8.077-13.99-21.173 0-29.25l55.43-31.998c13.99-8.078 36.67-8.078 50.66 0z" fill="url(#ah)"></path><path d="m1563.63 603.011c13.99 8.077 13.99 21.173 0 29.25l-55.43 31.998c-13.99 8.077-36.67 8.077-50.66 0l-53.09-30.649c-13.99-8.077-13.99-21.173 0-29.25l55.43-31.998c13.99-8.078 36.67-8.078 50.66 0z" fill="#000" fill-opacity="0.8"></path><path d="m1597.38 602.118c-2.73 1.574-5.96 2.405-9.7 2.495-3.74 0-6.97-.787-9.7-2.36-2.65-1.529-3.93-3.351-3.85-5.464.15-2.159 1.59-4.025 4.32-5.599 2.57-1.484 5.72-2.226 9.46-2.226 3.66-.045 6.78.675 9.35 2.159 2.72 1.574 4.09 3.44 4.09 5.598-.08 2.114-1.4 3.913-3.97 5.397z" fill="#fc576e"></path><path d="m1597.38 602.118c-2.73 1.574-5.96 2.405-9.7 2.495-3.74 0-6.97-.787-9.7-2.36-2.65-1.529-3.93-3.351-3.85-5.464.15-2.159 1.59-4.025 4.32-5.599 2.57-1.484 5.72-2.226 9.46-2.226 3.66-.045 6.78.675 9.35 2.159 2.72 1.574 4.09 3.44 4.09 5.598-.08 2.114-1.4 3.913-3.97 5.397z" fill="url(#ae)"></path><path d="m1597.38 602.118c-2.73 1.574-5.96 2.405-9.7 2.495-3.74 0-6.97-.787-9.7-2.36-2.65-1.529-3.93-3.351-3.85-5.464.15-2.159 1.59-4.025 4.32-5.599 2.57-1.484 5.72-2.226 9.46-2.226 3.66-.045 6.78.675 9.35 2.159 2.72 1.574 4.09 3.44 4.09 5.598-.08 2.114-1.4 3.913-3.97 5.397z" fill="url(#af)"></path><path d="m1597.38 602.118c-2.73 1.574-5.96 2.405-9.7 2.495-3.74 0-6.97-.787-9.7-2.36-2.65-1.529-3.93-3.351-3.85-5.464.15-2.159 1.59-4.025 4.32-5.599 2.57-1.484 5.72-2.226 9.46-2.226 3.66-.045 6.78.675 9.35 2.159 2.72 1.574 4.09 3.44 4.09 5.598-.08 2.114-1.4 3.913-3.97 5.397z" fill="url(#ag)"></path><path d="m1597.38 602.118c-2.73 1.574-5.96 2.405-9.7 2.495-3.74 0-6.97-.787-9.7-2.36-2.65-1.529-3.93-3.351-3.85-5.464.15-2.159 1.59-4.025 4.32-5.599 2.57-1.484 5.72-2.226 9.46-2.226 3.66-.045 6.78.675 9.35 2.159 2.72 1.574 4.09 3.44 4.09 5.598-.08 2.114-1.4 3.913-3.97 5.397z" fill="url(#ah)"></path><path d="m1597.38 602.118c-2.73 1.574-5.96 2.405-9.7 2.495-3.74 0-6.97-.787-9.7-2.36-2.65-1.529-3.93-3.351-3.85-5.464.15-2.159 1.59-4.025 4.32-5.599 2.57-1.484 5.72-2.226 9.46-2.226 3.66-.045 6.78.675 9.35 2.159 2.72 1.574 4.09 3.44 4.09 5.598-.08 2.114-1.4 3.913-3.97 5.397z" fill="#000" fill-opacity="0.8"></path></g><g clip-rule="evenodd" fill-rule="evenodd"><path d="m1563.62 624.483c13.99-8.077 14-21.173 0-29.25l-53.08-30.649c-13.99-8.077-36.67-8.077-50.66 0l-55.43 31.998c-13.99 8.077-13.99 21.173 0 29.25l53.09 30.649c13.99 8.078 36.67 8.078 50.66 0zm24.06-27.647c3.74-.09 6.97-.922 9.69-2.496 2.58-1.484 3.9-3.283 3.98-5.396 0-2.159-1.37-4.025-4.09-5.599-2.57-1.484-5.69-2.204-9.35-2.159-3.74 0-6.89.742-9.46 2.226-2.73 1.574-4.17 3.44-4.33 5.599-.07 2.114 1.21 3.935 3.86 5.464 2.73 1.574 5.96 2.361 9.7 2.361zm-62.24 17.295 14.38-8.303-31.02-2.186-14.65-1.038-16.39-1.158 14.38-8.303-3.58-16.912-14.38 8.3 3.58 16.915-29.3-2.067-14.37 8.299 45.68 3.229 5.58 26.369 14.38-8.303-3.58-16.912z" fill="#fc576e"></path><path d="m1563.62 624.483c13.99-8.077 14-21.173 0-29.25l-53.08-30.649c-13.99-8.077-36.67-8.077-50.66 0l-55.43 31.998c-13.99 8.077-13.99 21.173 0 29.25l53.09 30.649c13.99 8.078 36.67 8.078 50.66 0zm24.06-27.647c3.74-.09 6.97-.922 9.69-2.496 2.58-1.484 3.9-3.283 3.98-5.396 0-2.159-1.37-4.025-4.09-5.599-2.57-1.484-5.69-2.204-9.35-2.159-3.74 0-6.89.742-9.46 2.226-2.73 1.574-4.17 3.44-4.33 5.599-.07 2.114 1.21 3.935 3.86 5.464 2.73 1.574 5.96 2.361 9.7 2.361zm-62.24 17.295 14.38-8.303-31.02-2.186-14.65-1.038-16.39-1.158 14.38-8.303-3.58-16.912-14.38 8.3 3.58 16.915-29.3-2.067-14.37 8.299 45.68 3.229 5.58 26.369 14.38-8.303-3.58-16.912z" fill="url(#ai)"></path><path d="m1563.62 624.483c13.99-8.077 14-21.173 0-29.25l-53.08-30.649c-13.99-8.077-36.67-8.077-50.66 0l-55.43 31.998c-13.99 8.077-13.99 21.173 0 29.25l53.09 30.649c13.99 8.078 36.67 8.078 50.66 0zm24.06-27.647c3.74-.09 6.97-.922 9.69-2.496 2.58-1.484 3.9-3.283 3.98-5.396 0-2.159-1.37-4.025-4.09-5.599-2.57-1.484-5.69-2.204-9.35-2.159-3.74 0-6.89.742-9.46 2.226-2.73 1.574-4.17 3.44-4.33 5.599-.07 2.114 1.21 3.935 3.86 5.464 2.73 1.574 5.96 2.361 9.7 2.361zm-62.24 17.295 14.38-8.303-31.02-2.186-14.65-1.038-16.39-1.158 14.38-8.303-3.58-16.912-14.38 8.3 3.58 16.915-29.3-2.067-14.37 8.299 45.68 3.229 5.58 26.369 14.38-8.303-3.58-16.912z" fill="url(#aj)"></path><path d="m1563.62 624.483c13.99-8.077 14-21.173 0-29.25l-53.08-30.649c-13.99-8.077-36.67-8.077-50.66 0l-55.43 31.998c-13.99 8.077-13.99 21.173 0 29.25l53.09 30.649c13.99 8.078 36.67 8.078 50.66 0zm24.06-27.647c3.74-.09 6.97-.922 9.69-2.496 2.58-1.484 3.9-3.283 3.98-5.396 0-2.159-1.37-4.025-4.09-5.599-2.57-1.484-5.69-2.204-9.35-2.159-3.74 0-6.89.742-9.46 2.226-2.73 1.574-4.17 3.44-4.33 5.599-.07 2.114 1.21 3.935 3.86 5.464 2.73 1.574 5.96 2.361 9.7 2.361zm-62.24 17.295 14.38-8.303-31.02-2.186-14.65-1.038-16.39-1.158 14.38-8.303-3.58-16.912-14.38 8.3 3.58 16.915-29.3-2.067-14.37 8.299 45.68 3.229 5.58 26.369 14.38-8.303-3.58-16.912z" fill="url(#ak)"></path><path d="m1563.62 624.483c13.99-8.077 14-21.173 0-29.25l-53.08-30.649c-13.99-8.077-36.67-8.077-50.66 0l-55.43 31.998c-13.99 8.077-13.99 21.173 0 29.25l53.09 30.649c13.99 8.078 36.67 8.078 50.66 0zm24.06-27.647c3.74-.09 6.97-.922 9.69-2.496 2.58-1.484 3.9-3.283 3.98-5.396 0-2.159-1.37-4.025-4.09-5.599-2.57-1.484-5.69-2.204-9.35-2.159-3.74 0-6.89.742-9.46 2.226-2.73 1.574-4.17 3.44-4.33 5.599-.07 2.114 1.21 3.935 3.86 5.464 2.73 1.574 5.96 2.361 9.7 2.361zm-62.24 17.295 14.38-8.303-31.02-2.186-14.65-1.038-16.39-1.158 14.38-8.303-3.58-16.912-14.38 8.3 3.58 16.915-29.3-2.067-14.37 8.299 45.68 3.229 5.58 26.369 14.38-8.303-3.58-16.912z" fill="url(#al)"></path></g></g><g filter="url(#q)" stroke-linecap="round" stroke-linejoin="round" stroke-width="5.46833"><rect height="253.645" rx="68.2507" stroke="#fc576e" transform="matrix(.866025 -.5 .866025 .5 1268.83 581.844)" width="253.645"></rect><rect height="253.645" rx="68.2507" stroke="url(#am)" transform="matrix(.866025 -.5 .866025 .5 1268.83 581.844)" width="253.645"></rect><rect height="253.645" rx="68.2507" stroke="url(#an)" transform="matrix(.866025 -.5 .866025 .5 1268.83 581.844)" width="253.645"></rect><rect height="253.645" rx="68.2507" stroke="url(#ao)" transform="matrix(.866025 -.5 .866025 .5 1268.83 581.844)" width="253.645"></rect><rect height="253.645" rx="68.2507" stroke="url(#ap)" transform="matrix(.866025 -.5 .866025 .5 1268.83 581.844)" width="253.645"></rect></g><g opacity="0.4" stroke-linecap="round" stroke-linejoin="round" stroke-width="2.92503"><path d="m1327.93 615.97c-32.64-18.847-32.64-49.404 0-68.251l101.45-58.572c32.65-18.847 85.57-18.847 118.22 0l101.45 58.572c32.64 18.847 32.64 49.404 0 68.251l-101.45 58.572c-32.65 18.847-85.57 18.847-118.22 0z" stroke="#fc576e"></path><path d="m1327.93 615.97c-32.64-18.847-32.64-49.404 0-68.251l101.45-58.572c32.65-18.847 85.57-18.847 118.22 0l101.45 58.572c32.64 18.847 32.64 49.404 0 68.251l-101.45 58.572c-32.65 18.847-85.57 18.847-118.22 0z" stroke="url(#aq)"></path><path d="m1327.93 615.97c-32.64-18.847-32.64-49.404 0-68.251l101.45-58.572c32.65-18.847 85.57-18.847 118.22 0l101.45 58.572c32.64 18.847 32.64 49.404 0 68.251l-101.45 58.572c-32.65 18.847-85.57 18.847-118.22 0z" stroke="url(#ar)"></path><path d="m1327.93 615.97c-32.64-18.847-32.64-49.404 0-68.251l101.45-58.572c32.65-18.847 85.57-18.847 118.22 0l101.45 58.572c32.64 18.847 32.64 49.404 0 68.251l-101.45 58.572c-32.65 18.847-85.57 18.847-118.22 0z" stroke="url(#as)"></path><path d="m1327.93 615.97c-32.64-18.847-32.64-49.404 0-68.251l101.45-58.572c32.65-18.847 85.57-18.847 118.22 0l101.45 58.572c32.64 18.847 32.64 49.404 0 68.251l-101.45 58.572c-32.65 18.847-85.57 18.847-118.22 0z" stroke="url(#at)"></path></g><g filter="url(#r)"><rect fill="url(#au)" height="743.86" rx="203.061" transform="matrix(.866025 -.5 .866025 .5 518.555 1055.01)" width="743.86"></rect><rect fill="#000" fill-opacity="0.62" height="743.86" rx="203.061" transform="matrix(.866025 -.5 .866025 .5 518.555 1055.01)" width="743.86"></rect></g><g filter="url(#s)"><rect fill="#000" height="743.86" rx="200.522" transform="matrix(.866025 -.5 .866025 .5 518.555 1005.69)" width="743.86"></rect><rect fill="url(#av)" fill-opacity="0.3" height="743.86" rx="200.522" transform="matrix(.866025 -.5 .866025 .5 518.555 1005.69)" width="743.86"></rect></g><g filter="url(#t)" opacity="0.5"><path d="m882.861 953.745-48.077-27.757 22.694-13.103 119.69 69.104-22.694 13.102-51.104-29.505-55.642 32.125 51.103 29.509-22.694 13.1-119.69-69.105 22.694-13.102 48.078 27.758zm153.119-54.044 5.04 2.912-64.887 37.463c8.181 3.817 16.082 5.726 23.703 5.726 7.624-.129 14.684-2.07 21.184-5.823 9.63-5.565 12.1-11.776 7.39-18.635l20.34-11.743c6.62 6.405 8.97 13.199 7.06 20.381-2.01 7.118-8.18 13.653-18.49 19.605-12.89 7.441-27.45 11.065-43.704 10.87-16.25-.194-31.212-4.238-44.884-12.131-13.673-7.894-20.733-16.5-21.181-25.817-.336-9.382 5.883-17.761 18.659-25.137 13.113-7.571 27.85-11.097 44.212-10.579 16.358.517 31.548 4.82 45.558 12.908zm-73.464 7.279c-12.439 7.182-12.775 15.335-1.008 24.458l43.542-25.137c-7.288-3.171-14.684-4.724-22.193-4.659s-14.289 1.844-20.341 5.338zm151.014-3.723-21.18 12.229-119.687-69.103 21.181-12.229zm39.1-22.569-21.19 12.229-119.69-69.103 21.19-12.229zm58.92-84.102c13.67 7.894 20.62 16.564 20.85 26.011.22 9.447-6.28 17.987-19.5 25.622-13.23 7.635-28.02 11.388-44.38 11.259-16.36 0-31.44-3.979-45.22-11.938-13.79-7.958-20.68-16.661-20.68-26.108-.22-9.446 6.28-17.987 19.5-25.622 13.23-7.635 27.96-11.42 44.21-11.356 16.25.065 31.33 4.109 45.22 12.132zm-40.01 46.975c8.86.453 16.81-1.359 23.87-5.435 7.06-4.077 10.15-8.638 9.25-13.685-.9-5.176-5.77-10.32-14.62-15.432-8.86-5.111-17.71-7.894-26.57-8.347-8.85-.582-16.81 1.165-23.87 5.241-7.06 4.077-10.19 8.671-9.41 13.782.9 5.047 5.83 10.159 14.79 15.335 8.97 5.176 17.82 8.023 26.56 8.541z" fill="url(#aw)" shape-rendering="crispEdges"></path></g><g filter="url(#u)"><path d="m1446.22 1023.51c-7.1 4.1-15.51 6.26-25.25 6.5-9.73 0-18.15-2.05-25.24-6.15-6.9-3.98-10.24-8.72-10.04-14.22.41-5.62 4.16-10.479 11.25-14.576 6.7-3.864 14.91-5.795 24.64-5.795 9.53-.117 17.64 1.756 24.33 5.619 7.1 4.097 10.65 8.952 10.65 14.572-.2 5.51-3.65 10.19-10.34 14.05z" fill="#fc576e"></path><path d="m1446.22 1023.51c-7.1 4.1-15.51 6.26-25.25 6.5-9.73 0-18.15-2.05-25.24-6.15-6.9-3.98-10.24-8.72-10.04-14.22.41-5.62 4.16-10.479 11.25-14.576 6.7-3.864 14.91-5.795 24.64-5.795 9.53-.117 17.64 1.756 24.33 5.619 7.1 4.097 10.65 8.952 10.65 14.572-.2 5.51-3.65 10.19-10.34 14.05z" fill="url(#ax)"></path><path d="m1446.22 1023.51c-7.1 4.1-15.51 6.26-25.25 6.5-9.73 0-18.15-2.05-25.24-6.15-6.9-3.98-10.24-8.72-10.04-14.22.41-5.62 4.16-10.479 11.25-14.576 6.7-3.864 14.91-5.795 24.64-5.795 9.53-.117 17.64 1.756 24.33 5.619 7.1 4.097 10.65 8.952 10.65 14.572-.2 5.51-3.65 10.19-10.34 14.05z" fill="url(#ay)"></path><path d="m1446.22 1023.51c-7.1 4.1-15.51 6.26-25.25 6.5-9.73 0-18.15-2.05-25.24-6.15-6.9-3.98-10.24-8.72-10.04-14.22.41-5.62 4.16-10.479 11.25-14.576 6.7-3.864 14.91-5.795 24.64-5.795 9.53-.117 17.64 1.756 24.33 5.619 7.1 4.097 10.65 8.952 10.65 14.572-.2 5.51-3.65 10.19-10.34 14.05z" fill="url(#az)"></path><path d="m1446.22 1023.51c-7.1 4.1-15.51 6.26-25.25 6.5-9.73 0-18.15-2.05-25.24-6.15-6.9-3.98-10.24-8.72-10.04-14.22.41-5.62 4.16-10.479 11.25-14.576 6.7-3.864 14.91-5.795 24.64-5.795 9.53-.117 17.64 1.756 24.33 5.619 7.1 4.097 10.65 8.952 10.65 14.572-.2 5.51-3.65 10.19-10.34 14.05z" fill="url(#aA)"></path><path d="m1446.22 1023.51c-7.1 4.1-15.51 6.26-25.25 6.5-9.73 0-18.15-2.05-25.24-6.15-6.9-3.98-10.24-8.72-10.04-14.22.41-5.62 4.16-10.479 11.25-14.576 6.7-3.864 14.91-5.795 24.64-5.795 9.53-.117 17.64 1.756 24.33 5.619 7.1 4.097 10.65 8.952 10.65 14.572-.2 5.51-3.65 10.19-10.34 14.05z" fill="#000" fill-opacity="0.6"></path></g><g filter="url(#v)"><g filter="url(#w)"><path d="m1446.22 1041.28c-7.1 4.1-15.51 6.26-25.25 6.5-9.73 0-18.15-2.05-25.24-6.15-6.9-3.98-10.24-8.72-10.04-14.22.41-5.62 4.16-10.48 11.25-14.58 6.7-3.86 14.91-5.79 24.64-5.79 9.53-.12 17.64 1.75 24.33 5.62 7.1 4.09 10.65 8.95 10.65 14.57-.2 5.5-3.65 10.19-10.34 14.05z" fill="#fc576e"></path><path d="m1446.22 1041.28c-7.1 4.1-15.51 6.26-25.25 6.5-9.73 0-18.15-2.05-25.24-6.15-6.9-3.98-10.24-8.72-10.04-14.22.41-5.62 4.16-10.48 11.25-14.58 6.7-3.86 14.91-5.79 24.64-5.79 9.53-.12 17.64 1.75 24.33 5.62 7.1 4.09 10.65 8.95 10.65 14.57-.2 5.5-3.65 10.19-10.34 14.05z" fill="url(#aB)"></path><path d="m1446.22 1041.28c-7.1 4.1-15.51 6.26-25.25 6.5-9.73 0-18.15-2.05-25.24-6.15-6.9-3.98-10.24-8.72-10.04-14.22.41-5.62 4.16-10.48 11.25-14.58 6.7-3.86 14.91-5.79 24.64-5.79 9.53-.12 17.64 1.75 24.33 5.62 7.1 4.09 10.65 8.95 10.65 14.57-.2 5.5-3.65 10.19-10.34 14.05z" fill="url(#aC)"></path><path d="m1446.22 1041.28c-7.1 4.1-15.51 6.26-25.25 6.5-9.73 0-18.15-2.05-25.24-6.15-6.9-3.98-10.24-8.72-10.04-14.22.41-5.62 4.16-10.48 11.25-14.58 6.7-3.86 14.91-5.79 24.64-5.79 9.53-.12 17.64 1.75 24.33 5.62 7.1 4.09 10.65 8.95 10.65 14.57-.2 5.5-3.65 10.19-10.34 14.05z" fill="url(#aD)"></path><path d="m1446.22 1041.28c-7.1 4.1-15.51 6.26-25.25 6.5-9.73 0-18.15-2.05-25.24-6.15-6.9-3.98-10.24-8.72-10.04-14.22.41-5.62 4.16-10.48 11.25-14.58 6.7-3.86 14.91-5.79 24.64-5.79 9.53-.12 17.64 1.75 24.33 5.62 7.1 4.09 10.65 8.95 10.65 14.57-.2 5.5-3.65 10.19-10.34 14.05z" fill="url(#aE)"></path><path d="m1446.22 1041.28c-7.1 4.1-15.51 6.26-25.25 6.5-9.73 0-18.15-2.05-25.24-6.15-6.9-3.98-10.24-8.72-10.04-14.22.41-5.62 4.16-10.48 11.25-14.58 6.7-3.86 14.91-5.79 24.64-5.79 9.53-.12 17.64 1.75 24.33 5.62 7.1 4.09 10.65 8.95 10.65 14.57-.2 5.5-3.65 10.19-10.34 14.05z" fill="#000" fill-opacity="0.6"></path></g><g filter="url(#x)"><path d="m1358.36 1041.07c36.42 21.03 36.42 55.12 0 76.15l-144.29 83.3c-36.42 21.02-95.47 21.02-131.89 0l-138.197-79.79c-36.421-21.03-36.421-55.12 0-76.15l144.287-83.302c36.42-21.027 95.47-21.027 131.89 0z" fill="#fc576e"></path><path d="m1358.36 1041.07c36.42 21.03 36.42 55.12 0 76.15l-144.29 83.3c-36.42 21.02-95.47 21.02-131.89 0l-138.197-79.79c-36.421-21.03-36.421-55.12 0-76.15l144.287-83.302c36.42-21.027 95.47-21.027 131.89 0z" fill="url(#aF)"></path><path d="m1358.36 1041.07c36.42 21.03 36.42 55.12 0 76.15l-144.29 83.3c-36.42 21.02-95.47 21.02-131.89 0l-138.197-79.79c-36.421-21.03-36.421-55.12 0-76.15l144.287-83.302c36.42-21.027 95.47-21.027 131.89 0z" fill="url(#aG)"></path><path d="m1358.36 1041.07c36.42 21.03 36.42 55.12 0 76.15l-144.29 83.3c-36.42 21.02-95.47 21.02-131.89 0l-138.197-79.79c-36.421-21.03-36.421-55.12 0-76.15l144.287-83.302c36.42-21.027 95.47-21.027 131.89 0z" fill="url(#aH)"></path><path d="m1358.36 1041.07c36.42 21.03 36.42 55.12 0 76.15l-144.29 83.3c-36.42 21.02-95.47 21.02-131.89 0l-138.197-79.79c-36.421-21.03-36.421-55.12 0-76.15l144.287-83.302c36.42-21.027 95.47-21.027 131.89 0z" fill="url(#aI)"></path><path d="m1358.36 1041.07c36.42 21.03 36.42 55.12 0 76.15l-144.29 83.3c-36.42 21.02-95.47 21.02-131.89 0l-138.197-79.79c-36.421-21.03-36.421-55.12 0-76.15l144.287-83.302c36.42-21.027 95.47-21.027 131.89 0z" fill="#000" fill-opacity="0.8"></path><path d="m1446.22 1038.74c-7.1 4.1-15.51 6.27-25.25 6.5-9.73 0-18.15-2.05-25.24-6.15-6.9-3.98-10.24-8.72-10.04-14.22.41-5.62 4.16-10.48 11.25-14.58 6.7-3.86 14.91-5.79 24.64-5.79 9.53-.12 17.64 1.76 24.33 5.62 7.1 4.1 10.65 8.95 10.65 14.57-.2 5.51-3.65 10.19-10.34 14.05z" fill="#fc576e"></path><path d="m1446.22 1038.74c-7.1 4.1-15.51 6.27-25.25 6.5-9.73 0-18.15-2.05-25.24-6.15-6.9-3.98-10.24-8.72-10.04-14.22.41-5.62 4.16-10.48 11.25-14.58 6.7-3.86 14.91-5.79 24.64-5.79 9.53-.12 17.64 1.76 24.33 5.62 7.1 4.1 10.65 8.95 10.65 14.57-.2 5.51-3.65 10.19-10.34 14.05z" fill="url(#aF)"></path><path d="m1446.22 1038.74c-7.1 4.1-15.51 6.27-25.25 6.5-9.73 0-18.15-2.05-25.24-6.15-6.9-3.98-10.24-8.72-10.04-14.22.41-5.62 4.16-10.48 11.25-14.58 6.7-3.86 14.91-5.79 24.64-5.79 9.53-.12 17.64 1.76 24.33 5.62 7.1 4.1 10.65 8.95 10.65 14.57-.2 5.51-3.65 10.19-10.34 14.05z" fill="url(#aG)"></path><path d="m1446.22 1038.74c-7.1 4.1-15.51 6.27-25.25 6.5-9.73 0-18.15-2.05-25.24-6.15-6.9-3.98-10.24-8.72-10.04-14.22.41-5.62 4.16-10.48 11.25-14.58 6.7-3.86 14.91-5.79 24.64-5.79 9.53-.12 17.64 1.76 24.33 5.62 7.1 4.1 10.65 8.95 10.65 14.57-.2 5.51-3.65 10.19-10.34 14.05z" fill="url(#aH)"></path><path d="m1446.22 1038.74c-7.1 4.1-15.51 6.27-25.25 6.5-9.73 0-18.15-2.05-25.24-6.15-6.9-3.98-10.24-8.72-10.04-14.22.41-5.62 4.16-10.48 11.25-14.58 6.7-3.86 14.91-5.79 24.64-5.79 9.53-.12 17.64 1.76 24.33 5.62 7.1 4.1 10.65 8.95 10.65 14.57-.2 5.51-3.65 10.19-10.34 14.05z" fill="url(#aI)"></path><path d="m1446.22 1038.74c-7.1 4.1-15.51 6.27-25.25 6.5-9.73 0-18.15-2.05-25.24-6.15-6.9-3.98-10.24-8.72-10.04-14.22.41-5.62 4.16-10.48 11.25-14.58 6.7-3.86 14.91-5.79 24.64-5.79 9.53-.12 17.64 1.76 24.33 5.62 7.1 4.1 10.65 8.95 10.65 14.57-.2 5.51-3.65 10.19-10.34 14.05z" fill="#000" fill-opacity="0.8"></path></g><path d="m1358.36 1020.82c36.42 21.03 36.42 55.12 0 76.15l-144.29 83.3c-36.42 21.03-95.47 21.02-131.89 0l-138.197-79.79c-36.421-21.03-36.421-55.12 0-76.15l144.287-83.301c36.42-21.027 95.47-21.027 131.89 0zm-241.86 32.1 92.46 53.39 31.33-18.09-137.18-79.2-25.24 14.58c5.47 7.14 6.99 13.4 4.56 18.79-2.43 5.15-8.72 10.65-18.86 16.5l21.29 12.29z" fill="url(#aK)"></path><path d="m1358.36 1020.82c36.42 21.03 36.42 55.12 0 76.15l-144.29 83.3c-36.42 21.03-95.47 21.02-131.89 0l-138.197-79.79c-36.421-21.03-36.421-55.12 0-76.15l144.287-83.301c36.42-21.027 95.47-21.027 131.89 0zm-241.86 32.1 92.46 53.39 31.33-18.09-137.18-79.2-25.24 14.58c5.47 7.14 6.99 13.4 4.56 18.79-2.43 5.15-8.72 10.65-18.86 16.5l21.29 12.29z" fill="url(#aM)"></path><path d="m1446.22 1018.49c-7.1 4.1-15.51 6.27-25.25 6.5-9.73 0-18.15-2.05-25.24-6.15-6.9-3.98-10.24-8.72-10.04-14.22.41-5.619 4.16-10.477 11.25-14.574 6.7-3.864 14.91-5.795 24.64-5.795 9.53-.117 17.64 1.756 24.33 5.619 7.1 4.097 10.65 8.956 10.65 14.58-.2 5.5-3.65 10.18-10.34 14.04z" fill="url(#aK)"></path><path d="m1446.22 1018.49c-7.1 4.1-15.51 6.27-25.25 6.5-9.73 0-18.15-2.05-25.24-6.15-6.9-3.98-10.24-8.72-10.04-14.22.41-5.619 4.16-10.477 11.25-14.574 6.7-3.864 14.91-5.795 24.64-5.795 9.53-.117 17.64 1.756 24.33 5.619 7.1 4.097 10.65 8.956 10.65 14.58-.2 5.5-3.65 10.18-10.34 14.04z" fill="url(#aM)"></path></g><g opacity="0.4" stroke-linecap="round" stroke-linejoin="round" stroke-width="7.61478"><path d="m744.768 1074.8c-84.982-49.06-84.982-128.612 0-177.676l264.102-152.481c84.99-49.065 222.77-49.065 307.75-.001l264.11 152.482c84.98 49.064 84.98 128.616 0 177.676l-264.11 152.48c-84.98 49.07-222.76 49.07-307.75 0z" stroke="url(#aN)"></path><path d="m744.768 1074.8c-84.982-49.06-84.982-128.612 0-177.676l264.102-152.481c84.99-49.065 222.77-49.065 307.75-.001l264.11 152.482c84.98 49.064 84.98 128.616 0 177.676l-264.11 152.48c-84.98 49.07-222.76 49.07-307.75 0z" stroke="url(#aO)"></path></g></svg>