<svg fill="none" height="919" viewBox="0 0 1440 919" width="1440" xmlns="http://www.w3.org/2000/svg" xmlns:xlink="http://www.w3.org/1999/xlink"><filter id="a" color-interpolation-filters="sRGB" filterUnits="userSpaceOnUse" height="660.198" width="682.917" x="-219" y="-29.5361"><feFlood flood-opacity="0" result="BackgroundImageFix"/><feBlend in="SourceGraphic" in2="BackgroundImageFix" mode="normal" result="shape"/><feGaussianBlur result="effect1_foregroundBlur_5_12206" stdDeviation="50"/></filter><linearGradient id="b"><stop offset="0" stop-color="#567cde"/><stop offset="1" stop-color="#97b4ff" stop-opacity="0"/></linearGradient><radialGradient id="c" cx="0" cy="0" gradientTransform="matrix(-151.00029749 447.49950802 -701.19680093 -236.60568032 1388.5 37.0001)" gradientUnits="userSpaceOnUse" r="1" xlink:href="#b"/><radialGradient id="d" cx="0" cy="0" gradientTransform="matrix(385.00041448 188.00022167 -294.58092383 603.2640641 -34.5 436.5)" gradientUnits="userSpaceOnUse" r="1" xlink:href="#b"/><radialGradient id="e" cx="0" cy="0" gradientTransform="matrix(279.50013346 180.19390388 -195.78031813 303.67633903 440.5 465.5)" gradientUnits="userSpaceOnUse" r="1"><stop offset="0" stop-color="#060606"/><stop offset="1" stop-color="#3e2eff" stop-opacity="0"/></radialGradient><linearGradient id="f" gradientUnits="userSpaceOnUse" x1="1336" x2="1336" y1="441" y2="1081"><stop offset="0" stop-opacity="0"/><stop offset="1"/></linearGradient><clipPath id="g"><path d="m0 0h1440v919h-1440z"/></clipPath><g clip-path="url(#g)"><path d="m0 0h1440v919h-1440z" fill="#020202"/><path d="m0 0h1440v919h-1440z" fill="url(#c)" fill-opacity=".7"/><path d="m0 0h1440v919h-1440z" fill="url(#d)" fill-opacity=".7"/><g opacity=".6"><path d="m0 0h1440v931h-1440z" fill="#000"/><path d="m0 0h1440v931h-1440z" fill="url(#e)" fill-opacity=".32"/></g><g filter="url(#a)"><path d="m363.917 172.162-93.791-101.698-389.126 352.459 99.3604 107.739z" fill="#000" fill-opacity=".7"/></g><path d="m1135 441h402v640h-402z" fill="url(#f)"/></g></svg>